<?xml version="1.0" encoding="UTF-8"?>
<svg xmlns="http://www.w3.org/2000/svg" version="1.1" width="300" height="300" viewBox="0 0 300 300"><rect x="0" y="0" width="300" height="300" fill="#ffffff"/><g transform="scale(4.348)"><g transform="translate(0,0)"><path fill-rule="evenodd" d="M10 0L10 1L8 1L8 2L10 2L10 3L8 3L8 4L9 4L9 5L8 5L8 7L9 7L9 6L10 6L10 7L11 7L11 6L12 6L12 7L13 7L13 8L14 8L14 7L15 7L15 8L16 8L16 9L14 9L14 10L13 10L13 11L12 11L12 10L11 10L11 11L12 11L12 12L10 12L10 11L9 11L9 9L12 9L12 8L6 8L6 9L7 9L7 10L5 10L5 8L0 8L0 9L3 9L3 10L2 10L2 11L1 11L1 10L0 10L0 11L1 11L1 12L2 12L2 13L1 13L1 14L0 14L0 15L1 15L1 14L2 14L2 16L0 16L0 18L3 18L3 19L5 19L5 21L2 21L2 20L1 20L1 19L0 19L0 21L1 21L1 22L3 22L3 23L0 23L0 25L2 25L2 27L1 27L1 28L2 28L2 30L1 30L1 29L0 29L0 30L1 30L1 31L3 31L3 28L4 28L4 29L5 29L5 31L7 31L7 30L8 30L8 29L7 29L7 28L8 28L8 27L10 27L10 29L9 29L9 30L11 30L11 32L12 32L12 33L13 33L13 32L15 32L15 33L14 33L14 34L15 34L15 33L18 33L18 34L20 34L20 35L18 35L18 36L16 36L16 35L17 35L17 34L16 34L16 35L15 35L15 36L14 36L14 37L13 37L13 38L14 38L14 39L11 39L11 35L12 35L12 36L13 36L13 35L12 35L12 34L9 34L9 33L10 33L10 31L9 31L9 32L4 32L4 33L3 33L3 35L4 35L4 36L3 36L3 37L2 37L2 38L3 38L3 37L7 37L7 38L5 38L5 41L4 41L4 39L1 39L1 40L0 40L0 43L1 43L1 44L0 44L0 54L1 54L1 55L0 55L0 56L1 56L1 55L2 55L2 57L0 57L0 61L1 61L1 58L2 58L2 59L3 59L3 58L4 58L4 59L10 59L10 57L9 57L9 58L8 58L8 56L5 56L5 57L7 57L7 58L4 58L4 57L3 57L3 55L4 55L4 54L1 54L1 51L3 51L3 53L7 53L7 54L6 54L6 55L8 55L8 53L7 53L7 52L6 52L6 51L8 51L8 50L6 50L6 51L5 51L5 52L4 52L4 51L3 51L3 50L5 50L5 49L7 49L7 48L8 48L8 49L9 49L9 51L10 51L10 52L9 52L9 53L10 53L10 54L13 54L13 55L11 55L11 56L15 56L15 55L16 55L16 56L17 56L17 60L16 60L16 59L15 59L15 60L13 60L13 61L15 61L15 60L16 60L16 61L19 61L19 62L20 62L20 63L19 63L19 64L20 64L20 63L21 63L21 64L22 64L22 63L23 63L23 65L18 65L18 64L15 64L15 63L16 63L16 62L15 62L15 63L14 63L14 62L13 62L13 63L12 63L12 64L14 64L14 65L13 65L13 66L11 66L11 63L10 63L10 67L12 67L12 68L13 68L13 69L19 69L19 68L20 68L20 69L21 69L21 66L23 66L23 67L24 67L24 68L23 68L23 69L24 69L24 68L28 68L28 69L32 69L32 68L33 68L33 69L39 69L39 68L36 68L36 67L35 67L35 66L37 66L37 67L40 67L40 68L41 68L41 69L44 69L44 68L45 68L45 67L42 67L42 66L45 66L45 65L44 65L44 64L46 64L46 63L47 63L47 64L48 64L48 65L50 65L50 64L51 64L51 63L52 63L52 64L53 64L53 65L52 65L52 66L55 66L55 65L54 65L54 64L57 64L57 63L54 63L54 62L56 62L56 61L54 61L54 60L57 60L57 59L56 59L56 58L57 58L57 57L56 57L56 56L57 56L57 55L59 55L59 56L58 56L58 57L59 57L59 58L58 58L58 59L59 59L59 60L58 60L58 61L59 61L59 60L60 60L60 62L58 62L58 63L59 63L59 64L60 64L60 65L59 65L59 66L58 66L58 67L61 67L61 66L60 66L60 65L62 65L62 67L63 67L63 68L61 68L61 69L66 69L66 68L67 68L67 69L68 69L68 68L67 68L67 67L65 67L65 68L64 68L64 66L65 66L65 65L66 65L66 64L67 64L67 65L69 65L69 63L68 63L68 62L69 62L69 61L68 61L68 60L67 60L67 59L68 59L68 58L69 58L69 57L68 57L68 56L69 56L69 55L68 55L68 54L69 54L69 53L68 53L68 54L67 54L67 53L66 53L66 52L68 52L68 50L69 50L69 49L68 49L68 48L67 48L67 47L66 47L66 46L69 46L69 43L68 43L68 42L69 42L69 41L68 41L68 40L69 40L69 39L68 39L68 38L69 38L69 35L68 35L68 34L69 34L69 33L68 33L68 32L67 32L67 31L68 31L68 30L69 30L69 27L68 27L68 28L67 28L67 26L69 26L69 25L68 25L68 24L69 24L69 23L64 23L64 22L69 22L69 20L67 20L67 19L68 19L68 18L69 18L69 17L68 17L68 16L69 16L69 15L64 15L64 14L66 14L66 12L67 12L67 11L68 11L68 12L69 12L69 11L68 11L68 10L69 10L69 9L68 9L68 8L67 8L67 9L66 9L66 8L65 8L65 11L64 11L64 8L63 8L63 10L62 10L62 8L61 8L61 6L60 6L60 7L59 7L59 4L58 4L58 5L57 5L57 4L56 4L56 3L59 3L59 2L58 2L58 1L61 1L61 0L57 0L57 2L56 2L56 0L52 0L52 1L55 1L55 3L54 3L54 4L53 4L53 5L55 5L55 6L54 6L54 7L55 7L55 6L56 6L56 8L55 8L55 9L54 9L54 8L53 8L53 6L52 6L52 7L51 7L51 5L50 5L50 3L48 3L48 2L51 2L51 1L45 1L45 0L44 0L44 1L45 1L45 2L44 2L44 3L43 3L43 2L42 2L42 1L43 1L43 0L42 0L42 1L41 1L41 2L40 2L40 1L38 1L38 0L37 0L37 1L35 1L35 0L33 0L33 1L35 1L35 3L34 3L34 2L33 2L33 3L31 3L31 2L32 2L32 0L31 0L31 2L30 2L30 0L29 0L29 3L28 3L28 2L26 2L26 3L27 3L27 4L24 4L24 3L25 3L25 1L26 1L26 0L22 0L22 1L23 1L23 2L22 2L22 3L23 3L23 4L21 4L21 0L18 0L18 1L20 1L20 2L18 2L18 3L16 3L16 0L14 0L14 1L13 1L13 0ZM27 0L27 1L28 1L28 0ZM12 1L12 3L11 3L11 5L10 5L10 6L11 6L11 5L12 5L12 4L13 4L13 7L14 7L14 5L16 5L16 3L15 3L15 4L14 4L14 3L13 3L13 1ZM14 1L14 2L15 2L15 1ZM37 1L37 2L36 2L36 3L35 3L35 4L37 4L37 5L40 5L40 6L39 6L39 8L38 8L38 6L37 6L37 8L38 8L38 9L37 9L37 10L39 10L39 11L38 11L38 12L37 12L37 13L36 13L36 12L35 12L35 11L36 11L36 10L35 10L35 9L31 9L31 11L33 11L33 14L34 14L34 12L35 12L35 13L36 13L36 14L37 14L37 13L38 13L38 14L39 14L39 12L40 12L40 15L39 15L39 17L38 17L38 15L37 15L37 17L36 17L36 15L35 15L35 16L34 16L34 15L32 15L32 14L31 14L31 13L32 13L32 12L31 12L31 13L30 13L30 14L29 14L29 13L28 13L28 12L29 12L29 11L30 11L30 10L29 10L29 9L30 9L30 8L29 8L29 7L30 7L30 5L31 5L31 7L32 7L32 5L31 5L31 4L27 4L27 5L25 5L25 7L26 7L26 6L27 6L27 7L28 7L28 8L26 8L26 9L27 9L27 10L26 10L26 11L28 11L28 12L26 12L26 13L25 13L25 12L24 12L24 11L23 11L23 10L24 10L24 9L22 9L22 8L21 8L21 9L20 9L20 8L19 8L19 7L20 7L20 5L21 5L21 7L22 7L22 5L21 5L21 4L20 4L20 5L19 5L19 4L17 4L17 7L16 7L16 6L15 6L15 7L16 7L16 8L17 8L17 7L18 7L18 8L19 8L19 9L18 9L18 10L17 10L17 9L16 9L16 10L15 10L15 11L13 11L13 13L10 13L10 12L8 12L8 11L6 11L6 12L8 12L8 14L7 14L7 13L4 13L4 12L5 12L5 10L3 10L3 11L2 11L2 12L3 12L3 13L4 13L4 14L3 14L3 16L5 16L5 17L3 17L3 18L5 18L5 17L6 17L6 18L7 18L7 19L6 19L6 20L7 20L7 21L5 21L5 22L4 22L4 23L3 23L3 24L2 24L2 25L5 25L5 24L7 24L7 23L9 23L9 24L8 24L8 25L6 25L6 26L9 26L9 25L10 25L10 26L11 26L11 25L12 25L12 24L14 24L14 25L16 25L16 26L15 26L15 27L16 27L16 28L17 28L17 29L15 29L15 28L14 28L14 26L13 26L13 27L11 27L11 30L12 30L12 32L13 32L13 29L14 29L14 30L15 30L15 31L16 31L16 32L18 32L18 33L21 33L21 34L22 34L22 33L23 33L23 32L24 32L24 33L26 33L26 34L23 34L23 36L22 36L22 37L15 37L15 38L17 38L17 39L15 39L15 40L16 40L16 41L14 41L14 40L13 40L13 41L11 41L11 39L9 39L9 37L8 37L8 38L7 38L7 39L6 39L6 40L7 40L7 41L6 41L6 42L7 42L7 43L5 43L5 42L4 42L4 41L3 41L3 40L2 40L2 42L1 42L1 43L2 43L2 44L1 44L1 45L3 45L3 43L4 43L4 45L6 45L6 46L7 46L7 47L6 47L6 48L7 48L7 47L8 47L8 48L9 48L9 49L11 49L11 50L10 50L10 51L11 51L11 50L12 50L12 48L14 48L14 49L13 49L13 51L14 51L14 50L15 50L15 52L13 52L13 54L14 54L14 53L15 53L15 54L16 54L16 55L17 55L17 56L19 56L19 55L21 55L21 56L22 56L22 57L18 57L18 58L19 58L19 60L20 60L20 59L21 59L21 58L22 58L22 59L24 59L24 60L21 60L21 61L20 61L20 62L21 62L21 63L22 63L22 61L25 61L25 63L24 63L24 65L26 65L26 66L25 66L25 67L28 67L28 68L29 68L29 64L30 64L30 63L31 63L31 65L30 65L30 66L31 66L31 67L30 67L30 68L32 68L32 67L34 67L34 66L35 66L35 65L32 65L32 62L31 62L31 61L32 61L32 59L33 59L33 60L36 60L36 59L37 59L37 58L41 58L41 56L42 56L42 55L44 55L44 53L45 53L45 52L43 52L43 54L42 54L42 55L41 55L41 56L40 56L40 55L37 55L37 54L36 54L36 55L35 55L35 53L34 53L34 52L33 52L33 51L34 51L34 50L33 50L33 49L37 49L37 50L36 50L36 51L37 51L37 52L38 52L38 51L37 51L37 50L40 50L40 51L39 51L39 53L38 53L38 54L41 54L41 52L42 52L42 51L44 51L44 50L45 50L45 51L46 51L46 50L47 50L47 49L45 49L45 48L47 48L47 47L48 47L48 48L49 48L49 47L50 47L50 48L51 48L51 49L50 49L50 50L51 50L51 49L54 49L54 47L55 47L55 46L56 46L56 47L58 47L58 50L52 50L52 51L57 51L57 52L56 52L56 53L55 53L55 54L54 54L54 55L53 55L53 53L54 53L54 52L51 52L51 51L48 51L48 52L50 52L50 54L51 54L51 55L50 55L50 56L49 56L49 55L48 55L48 54L47 54L47 53L46 53L46 54L45 54L45 55L46 55L46 56L47 56L47 55L48 55L48 56L49 56L49 57L50 57L50 58L51 58L51 61L50 61L50 62L48 62L48 64L50 64L50 62L52 62L52 63L53 63L53 62L52 62L52 61L53 61L53 60L52 60L52 58L53 58L53 56L54 56L54 57L55 57L55 58L54 58L54 59L55 59L55 58L56 58L56 57L55 57L55 56L56 56L56 55L57 55L57 54L59 54L59 55L61 55L61 57L62 57L62 55L63 55L63 53L64 53L64 54L65 54L65 55L64 55L64 56L63 56L63 58L62 58L62 59L61 59L61 58L60 58L60 60L62 60L62 59L63 59L63 60L65 60L65 62L66 62L66 61L67 61L67 60L65 60L65 59L67 59L67 58L68 58L68 57L67 57L67 56L68 56L68 55L67 55L67 54L65 54L65 53L64 53L64 52L65 52L65 51L66 51L66 50L67 50L67 48L66 48L66 47L64 47L64 46L66 46L66 45L67 45L67 44L68 44L68 43L67 43L67 44L66 44L66 45L64 45L64 44L65 44L65 42L68 42L68 41L67 41L67 40L68 40L68 39L67 39L67 38L68 38L68 37L67 37L67 36L65 36L65 37L61 37L61 38L60 38L60 40L59 40L59 39L58 39L58 40L59 40L59 41L57 41L57 40L56 40L56 41L55 41L55 42L52 42L52 41L53 41L53 40L51 40L51 39L53 39L53 38L54 38L54 39L57 39L57 38L59 38L59 37L60 37L60 35L58 35L58 34L59 34L59 33L60 33L60 32L59 32L59 31L61 31L61 32L63 32L63 31L67 31L67 30L68 30L68 29L67 29L67 28L66 28L66 25L67 25L67 24L64 24L64 23L62 23L62 22L63 22L63 21L65 21L65 20L63 20L63 21L62 21L62 22L61 22L61 23L60 23L60 22L59 22L59 21L58 21L58 20L59 20L59 19L60 19L60 17L61 17L61 16L62 16L62 18L63 18L63 19L64 19L64 18L63 18L63 16L64 16L64 17L67 17L67 18L68 18L68 17L67 17L67 16L64 16L64 15L61 15L61 14L59 14L59 13L57 13L57 12L54 12L54 11L55 11L55 10L56 10L56 11L58 11L58 12L59 12L59 11L60 11L60 13L61 13L61 12L62 12L62 14L63 14L63 13L65 13L65 12L66 12L66 11L65 11L65 12L63 12L63 11L60 11L60 10L59 10L59 9L61 9L61 8L59 8L59 7L58 7L58 6L57 6L57 7L58 7L58 10L57 10L57 8L56 8L56 9L55 9L55 10L53 10L53 8L49 8L49 7L50 7L50 6L49 6L49 7L48 7L48 5L47 5L47 2L46 2L46 3L44 3L44 4L43 4L43 5L42 5L42 6L41 6L41 3L42 3L42 2L41 2L41 3L39 3L39 2L38 2L38 1ZM23 2L23 3L24 3L24 2ZM37 2L37 3L38 3L38 4L39 4L39 3L38 3L38 2ZM52 2L52 3L51 3L51 4L52 4L52 3L53 3L53 2ZM33 3L33 4L34 4L34 3ZM60 3L60 5L61 5L61 3ZM55 4L55 5L56 5L56 4ZM27 5L27 6L28 6L28 7L29 7L29 5ZM33 5L33 8L36 8L36 5ZM44 5L44 8L43 8L43 6L42 6L42 7L41 7L41 6L40 6L40 8L39 8L39 10L40 10L40 8L41 8L41 11L40 11L40 12L41 12L41 14L45 14L45 13L44 13L44 12L46 12L46 11L50 11L50 12L51 12L51 10L52 10L52 12L53 12L53 13L54 13L54 14L53 14L53 15L52 15L52 14L49 14L49 16L48 16L48 15L47 15L47 14L46 14L46 15L43 15L43 16L42 16L42 17L41 17L41 18L43 18L43 19L42 19L42 20L41 20L41 19L40 19L40 18L38 18L38 17L37 17L37 18L36 18L36 17L34 17L34 16L32 16L32 15L31 15L31 16L30 16L30 17L28 17L28 16L29 16L29 15L27 15L27 14L28 14L28 13L26 13L26 14L25 14L25 13L24 13L24 12L23 12L23 11L22 11L22 12L23 12L23 13L22 13L22 14L23 14L23 15L24 15L24 16L25 16L25 17L22 17L22 18L23 18L23 19L25 19L25 21L24 21L24 20L23 20L23 21L22 21L22 22L20 22L20 21L21 21L21 20L22 20L22 19L21 19L21 20L20 20L20 21L19 21L19 20L18 20L18 19L20 19L20 18L19 18L19 17L20 17L20 16L21 16L21 15L19 15L19 14L18 14L18 13L21 13L21 10L22 10L22 9L21 9L21 10L20 10L20 9L19 9L19 10L18 10L18 11L17 11L17 10L16 10L16 11L17 11L17 12L15 12L15 13L17 13L17 14L14 14L14 13L13 13L13 14L11 14L11 15L10 15L10 13L9 13L9 14L8 14L8 15L7 15L7 14L6 14L6 15L5 15L5 14L4 14L4 15L5 15L5 16L6 16L6 17L8 17L8 21L7 21L7 22L5 22L5 23L4 23L4 24L5 24L5 23L7 23L7 22L8 22L8 21L9 21L9 22L10 22L10 23L11 23L11 24L12 24L12 22L13 22L13 23L14 23L14 24L16 24L16 23L15 23L15 22L13 22L13 21L14 21L14 20L15 20L15 19L16 19L16 20L17 20L17 22L18 22L18 23L19 23L19 24L17 24L17 25L19 25L19 26L17 26L17 28L18 28L18 29L17 29L17 30L16 30L16 31L18 31L18 29L19 29L19 30L20 30L20 32L21 32L21 33L22 33L22 30L23 30L23 31L24 31L24 30L27 30L27 29L21 29L21 28L20 28L20 29L19 29L19 26L20 26L20 25L22 25L22 24L20 24L20 23L22 23L22 22L23 22L23 23L24 23L24 25L23 25L23 26L24 26L24 25L25 25L25 28L26 28L26 26L27 26L27 28L28 28L28 29L29 29L29 30L30 30L30 29L32 29L32 28L28 28L28 27L29 27L29 26L27 26L27 25L26 25L26 24L27 24L27 23L28 23L28 21L29 21L29 23L30 23L30 21L31 21L31 22L32 22L32 23L31 23L31 25L30 25L30 24L28 24L28 25L30 25L30 26L31 26L31 27L32 27L32 26L31 26L31 25L33 25L33 24L32 24L32 23L37 23L37 24L34 24L34 25L36 25L36 26L34 26L34 27L33 27L33 28L34 28L34 29L33 29L33 30L32 30L32 31L29 31L29 33L31 33L31 32L32 32L32 35L30 35L30 36L28 36L28 35L27 35L27 36L28 36L28 37L29 37L29 38L28 38L28 39L27 39L27 37L24 37L24 36L26 36L26 35L24 35L24 36L23 36L23 37L22 37L22 39L20 39L20 38L18 38L18 39L17 39L17 41L16 41L16 42L14 42L14 41L13 41L13 42L11 42L11 43L12 43L12 44L14 44L14 43L16 43L16 45L15 45L15 46L16 46L16 45L19 45L19 46L18 46L18 47L17 47L17 48L16 48L16 47L15 47L15 49L17 49L17 50L16 50L16 51L17 51L17 50L19 50L19 51L20 51L20 50L19 50L19 49L20 49L20 48L21 48L21 47L23 47L23 49L21 49L21 51L22 51L22 52L23 52L23 53L22 53L22 54L21 54L21 55L22 55L22 54L23 54L23 53L24 53L24 57L23 57L23 58L24 58L24 57L25 57L25 58L26 58L26 59L27 59L27 60L28 60L28 61L29 61L29 62L28 62L28 63L27 63L27 64L28 64L28 63L29 63L29 62L30 62L30 61L31 61L31 60L30 60L30 59L31 59L31 58L33 58L33 54L34 54L34 53L33 53L33 52L32 52L32 51L33 51L33 50L32 50L32 49L33 49L33 48L35 48L35 47L32 47L32 46L33 46L33 45L34 45L34 46L36 46L36 48L38 48L38 47L39 47L39 48L41 48L41 50L43 50L43 49L44 49L44 48L45 48L45 47L44 47L44 48L43 48L43 47L42 47L42 46L44 46L44 44L46 44L46 43L50 43L50 44L51 44L51 43L52 43L52 44L53 44L53 45L54 45L54 46L53 46L53 47L52 47L52 46L50 46L50 45L49 45L49 44L47 44L47 46L46 46L46 47L47 47L47 46L48 46L48 47L49 47L49 46L50 46L50 47L52 47L52 48L53 48L53 47L54 47L54 46L55 46L55 45L56 45L56 44L58 44L58 45L59 45L59 46L58 46L58 47L59 47L59 48L60 48L60 49L59 49L59 50L58 50L58 51L59 51L59 52L58 52L58 53L59 53L59 52L60 52L60 51L62 51L62 52L61 52L61 55L62 55L62 52L63 52L63 51L62 51L62 49L63 49L63 50L64 50L64 49L66 49L66 48L64 48L64 47L62 47L62 46L64 46L64 45L62 45L62 44L64 44L64 43L62 43L62 42L60 42L60 43L59 43L59 42L58 42L58 43L57 43L57 42L55 42L55 43L54 43L54 44L53 44L53 43L52 43L52 42L50 42L50 41L49 41L49 40L50 40L50 39L51 39L51 38L50 38L50 36L48 36L48 35L51 35L51 36L53 36L53 37L54 37L54 38L57 38L57 37L58 37L58 35L56 35L56 34L57 34L57 33L58 33L58 31L59 31L59 30L58 30L58 28L59 28L59 29L60 29L60 30L61 30L61 31L63 31L63 30L61 30L61 29L60 29L60 28L61 28L61 27L59 27L59 26L62 26L62 29L64 29L64 28L65 28L65 29L66 29L66 30L67 30L67 29L66 29L66 28L65 28L65 26L62 26L62 25L64 25L64 24L62 24L62 23L61 23L61 25L59 25L59 24L58 24L58 25L59 25L59 26L58 26L58 28L57 28L57 27L55 27L55 28L53 28L53 26L55 26L55 25L56 25L56 24L57 24L57 23L56 23L56 24L55 24L55 23L53 23L53 22L57 22L57 21L56 21L56 20L58 20L58 19L59 19L59 18L58 18L58 19L57 19L57 18L56 18L56 20L55 20L55 21L52 21L52 22L50 22L50 20L48 20L48 19L51 19L51 20L53 20L53 18L55 18L55 17L56 17L56 16L58 16L58 17L60 17L60 16L61 16L61 15L60 15L60 16L59 16L59 14L57 14L57 15L56 15L56 14L55 14L55 13L54 13L54 12L53 12L53 10L52 10L52 9L51 9L51 10L49 10L49 8L48 8L48 7L47 7L47 5L46 5L46 7L45 7L45 5ZM18 6L18 7L19 7L19 6ZM23 6L23 8L24 8L24 6ZM34 6L34 7L35 7L35 6ZM46 7L46 8L47 8L47 9L46 9L46 10L45 10L45 8L44 8L44 9L43 9L43 8L42 8L42 9L43 9L43 10L42 10L42 11L41 11L41 12L42 12L42 11L43 11L43 10L45 10L45 11L46 11L46 10L48 10L48 8L47 8L47 7ZM28 8L28 9L29 9L29 8ZM67 9L67 10L68 10L68 9ZM28 10L28 11L29 11L29 10ZM58 10L58 11L59 11L59 10ZM18 11L18 12L20 12L20 11ZM47 12L47 13L49 13L49 12ZM23 13L23 14L24 14L24 15L25 15L25 16L26 16L26 15L25 15L25 14L24 14L24 13ZM67 13L67 14L69 14L69 13ZM13 14L13 16L12 16L12 15L11 15L11 16L10 16L10 15L8 15L8 17L9 17L9 16L10 16L10 17L11 17L11 18L9 18L9 19L10 19L10 20L9 20L9 21L10 21L10 22L11 22L11 20L13 20L13 19L11 19L11 18L14 18L14 19L15 19L15 18L14 18L14 14ZM17 14L17 15L18 15L18 14ZM54 14L54 15L53 15L53 16L52 16L52 15L50 15L50 18L51 18L51 19L52 19L52 18L51 18L51 17L55 17L55 16L56 16L56 15L55 15L55 14ZM6 15L6 16L7 16L7 15ZM40 15L40 16L41 16L41 15ZM11 16L11 17L12 17L12 16ZM15 16L15 17L18 17L18 16ZM44 16L44 17L43 17L43 18L44 18L44 17L45 17L45 20L44 20L44 22L42 22L42 23L41 23L41 22L40 22L40 21L41 21L41 20L40 20L40 19L37 19L37 20L36 20L36 19L35 19L35 18L34 18L34 17L30 17L30 18L29 18L29 20L31 20L31 18L33 18L33 19L32 19L32 21L33 21L33 22L37 22L37 21L38 21L38 22L39 22L39 23L38 23L38 24L39 24L39 25L38 25L38 26L40 26L40 27L37 27L37 26L36 26L36 27L34 27L34 28L36 28L36 30L39 30L39 31L37 31L37 32L38 32L38 34L37 34L37 37L33 37L33 38L31 38L31 37L32 37L32 36L31 36L31 37L30 37L30 38L29 38L29 39L28 39L28 40L26 40L26 38L23 38L23 39L25 39L25 40L26 40L26 41L25 41L25 42L26 42L26 44L24 44L24 43L22 43L22 42L24 42L24 41L22 41L22 40L21 40L21 41L17 41L17 44L18 44L18 42L20 42L20 44L19 44L19 45L20 45L20 46L19 46L19 48L20 48L20 47L21 47L21 46L22 46L22 45L28 45L28 49L25 49L25 48L26 48L26 47L25 47L25 46L24 46L24 47L25 47L25 48L24 48L24 49L25 49L25 50L24 50L24 51L25 51L25 50L26 50L26 52L24 52L24 53L28 53L28 54L27 54L27 55L28 55L28 56L26 56L26 54L25 54L25 56L26 56L26 57L27 57L27 59L28 59L28 60L29 60L29 59L30 59L30 57L32 57L32 56L31 56L31 55L32 55L32 54L31 54L31 53L30 53L30 52L29 52L29 53L28 53L28 51L27 51L27 50L28 50L28 49L29 49L29 45L28 45L28 44L29 44L29 43L32 43L32 44L31 44L31 45L30 45L30 46L32 46L32 45L33 45L33 43L34 43L34 45L35 45L35 43L37 43L37 44L36 44L36 45L38 45L38 46L37 46L37 47L38 47L38 46L39 46L39 47L41 47L41 48L42 48L42 49L43 49L43 48L42 48L42 47L41 47L41 45L42 45L42 43L46 43L46 42L48 42L48 40L49 40L49 39L48 39L48 38L47 38L47 35L48 35L48 34L52 34L52 35L53 35L53 34L54 34L54 35L55 35L55 36L56 36L56 37L57 37L57 36L56 36L56 35L55 35L55 34L56 34L56 33L57 33L57 32L56 32L56 33L55 33L55 34L54 34L54 33L53 33L53 32L51 32L51 31L50 31L50 30L52 30L52 31L53 31L53 28L52 28L52 26L53 26L53 25L55 25L55 24L51 24L51 23L50 23L50 24L49 24L49 23L48 23L48 22L47 22L47 21L45 21L45 20L47 20L47 19L48 19L48 16L47 16L47 17L46 17L46 16ZM25 17L25 18L26 18L26 21L25 21L25 24L26 24L26 23L27 23L27 22L26 22L26 21L28 21L28 19L27 19L27 18L28 18L28 17ZM17 18L17 19L18 19L18 18ZM46 18L46 19L47 19L47 18ZM33 19L33 20L34 20L34 21L35 21L35 20L34 20L34 19ZM61 19L61 20L60 20L60 21L61 21L61 20L62 20L62 19ZM66 20L66 21L67 21L67 20ZM18 21L18 22L19 22L19 21ZM45 22L45 23L44 23L44 24L43 24L43 23L42 23L42 24L41 24L41 23L40 23L40 24L41 24L41 25L40 25L40 26L41 26L41 27L40 27L40 28L41 28L41 29L40 29L40 30L41 30L41 31L40 31L40 32L42 32L42 30L44 30L44 28L46 28L46 27L47 27L47 30L46 30L46 31L44 31L44 32L43 32L43 33L41 33L41 35L39 35L39 34L38 34L38 36L41 36L41 37L40 37L40 38L38 38L38 37L37 37L37 38L38 38L38 39L39 39L39 40L37 40L37 39L36 39L36 38L35 38L35 40L36 40L36 41L37 41L37 43L39 43L39 44L38 44L38 45L39 45L39 46L40 46L40 45L39 45L39 44L41 44L41 43L42 43L42 42L44 42L44 40L45 40L45 39L44 39L44 38L45 38L45 37L46 37L46 36L45 36L45 35L44 35L44 32L45 32L45 33L46 33L46 31L47 31L47 34L46 34L46 35L47 35L47 34L48 34L48 33L51 33L51 32L48 32L48 31L47 31L47 30L48 30L48 29L49 29L49 30L50 30L50 29L49 29L49 28L50 28L50 27L51 27L51 26L52 26L52 25L51 25L51 26L50 26L50 25L49 25L49 24L48 24L48 23L47 23L47 22ZM58 22L58 23L59 23L59 22ZM45 23L45 24L44 24L44 26L42 26L42 27L41 27L41 28L42 28L42 29L41 29L41 30L42 30L42 29L43 29L43 27L45 27L45 26L47 26L47 23ZM19 24L19 25L20 25L20 24ZM48 25L48 26L49 26L49 25ZM3 26L3 27L4 27L4 28L7 28L7 27L4 27L4 26ZM23 27L23 28L24 28L24 27ZM48 27L48 28L49 28L49 27ZM63 27L63 28L64 28L64 27ZM37 28L37 29L38 29L38 28ZM55 28L55 30L54 30L54 31L58 31L58 30L56 30L56 29L57 29L57 28ZM6 29L6 30L7 30L7 29ZM20 29L20 30L21 30L21 29ZM34 29L34 30L33 30L33 31L32 31L32 32L33 32L33 31L34 31L34 32L35 32L35 29ZM25 31L25 32L26 32L26 31ZM0 32L0 35L1 35L1 34L2 34L2 32ZM65 32L65 33L67 33L67 34L66 34L66 35L67 35L67 34L68 34L68 33L67 33L67 32ZM5 33L5 36L8 36L8 33ZM27 33L27 34L28 34L28 33ZM33 33L33 36L36 36L36 33ZM61 33L61 36L64 36L64 33ZM6 34L6 35L7 35L7 34ZM34 34L34 35L35 35L35 34ZM42 34L42 35L41 35L41 36L42 36L42 35L43 35L43 36L44 36L44 37L45 37L45 36L44 36L44 35L43 35L43 34ZM62 34L62 35L63 35L63 34ZM9 35L9 36L10 36L10 35ZM65 37L65 40L64 40L64 38L63 38L63 39L61 39L61 41L62 41L62 40L64 40L64 41L63 41L63 42L64 42L64 41L66 41L66 40L67 40L67 39L66 39L66 38L67 38L67 37ZM30 38L30 39L29 39L29 40L28 40L28 41L29 41L29 42L27 42L27 41L26 41L26 42L27 42L27 44L28 44L28 43L29 43L29 42L35 42L35 41L33 41L33 40L34 40L34 38L33 38L33 39L31 39L31 38ZM40 38L40 39L41 39L41 40L39 40L39 41L38 41L38 42L39 42L39 41L40 41L40 43L41 43L41 40L42 40L42 39L43 39L43 38L42 38L42 39L41 39L41 38ZM46 38L46 39L47 39L47 40L46 40L46 41L47 41L47 40L48 40L48 39L47 39L47 38ZM7 39L7 40L8 40L8 39ZM19 39L19 40L20 40L20 39ZM29 40L29 41L30 41L30 40ZM31 40L31 41L32 41L32 40ZM8 41L8 43L9 43L9 44L6 44L6 45L8 45L8 47L10 47L10 48L12 48L12 47L11 47L11 46L13 46L13 45L11 45L11 46L9 46L9 45L10 45L10 41ZM21 41L21 42L22 42L22 41ZM21 43L21 44L20 44L20 45L22 45L22 43ZM58 43L58 44L59 44L59 45L60 45L60 46L59 46L59 47L61 47L61 49L62 49L62 47L61 47L61 44L62 44L62 43L60 43L60 44L59 44L59 43ZM48 45L48 46L49 46L49 45ZM4 46L4 48L3 48L3 47L2 47L2 48L3 48L3 49L4 49L4 48L5 48L5 46ZM30 47L30 48L31 48L31 47ZM17 48L17 49L18 49L18 48ZM56 48L56 49L57 49L57 48ZM63 48L63 49L64 49L64 48ZM30 49L30 50L31 50L31 51L32 51L32 50L31 50L31 49ZM48 49L48 50L49 50L49 49ZM22 50L22 51L23 51L23 50ZM59 50L59 51L60 51L60 50ZM40 51L40 52L41 52L41 51ZM16 52L16 53L17 53L17 55L18 55L18 53L19 53L19 54L20 54L20 53L21 53L21 52ZM29 53L29 55L30 55L30 53ZM51 53L51 54L52 54L52 53ZM46 54L46 55L47 55L47 54ZM55 54L55 55L54 55L54 56L55 56L55 55L56 55L56 54ZM9 55L9 56L10 56L10 55ZM34 55L34 56L35 56L35 57L34 57L34 58L35 58L35 59L36 59L36 58L37 58L37 57L38 57L38 56L37 56L37 55L36 55L36 56L35 56L35 55ZM51 55L51 56L53 56L53 55ZM65 55L65 56L64 56L64 57L66 57L66 56L67 56L67 55ZM28 56L28 57L30 57L30 56ZM36 56L36 57L35 57L35 58L36 58L36 57L37 57L37 56ZM39 56L39 57L40 57L40 56ZM44 56L44 58L42 58L42 59L41 59L41 60L40 60L40 59L38 59L38 60L37 60L37 62L40 62L40 63L39 63L39 64L38 64L38 63L37 63L37 65L38 65L38 66L40 66L40 67L41 67L41 68L42 68L42 67L41 67L41 66L42 66L42 64L44 64L44 63L46 63L46 62L47 62L47 61L48 61L48 60L50 60L50 59L49 59L49 58L47 58L47 57L45 57L45 56ZM59 56L59 57L60 57L60 56ZM11 57L11 58L12 58L12 57ZM13 57L13 59L14 59L14 57ZM15 57L15 58L16 58L16 57ZM51 57L51 58L52 58L52 57ZM46 58L46 59L43 59L43 60L42 60L42 61L41 61L41 62L44 62L44 60L46 60L46 59L47 59L47 60L48 60L48 59L47 59L47 58ZM11 59L11 60L12 60L12 59ZM3 60L3 61L5 61L5 60ZM6 60L6 61L7 61L7 60ZM8 60L8 63L9 63L9 61L10 61L10 62L11 62L11 61L10 61L10 60ZM25 60L25 61L26 61L26 62L27 62L27 61L26 61L26 60ZM38 60L38 61L39 61L39 60ZM33 61L33 64L36 64L36 61ZM61 61L61 64L64 64L64 61ZM17 62L17 63L18 63L18 62ZM34 62L34 63L35 63L35 62ZM62 62L62 63L63 63L63 62ZM25 63L25 64L26 64L26 63ZM40 63L40 64L41 64L41 63ZM65 63L65 64L66 64L66 63ZM67 63L67 64L68 64L68 63ZM8 64L8 69L9 69L9 64ZM14 65L14 66L13 66L13 67L15 67L15 66L17 66L17 68L18 68L18 65ZM27 65L27 66L28 66L28 65ZM31 65L31 66L32 66L32 65ZM56 65L56 66L57 66L57 65ZM63 65L63 66L64 66L64 65ZM19 66L19 67L20 67L20 66ZM46 66L46 67L47 67L47 68L46 68L46 69L50 69L50 68L48 68L48 67L47 67L47 66ZM49 66L49 67L51 67L51 66ZM52 67L52 68L53 68L53 67ZM54 67L54 69L56 69L56 68L57 68L57 69L60 69L60 68L57 68L57 67L56 67L56 68L55 68L55 67ZM10 68L10 69L11 69L11 68ZM0 0L0 7L7 7L7 0ZM1 1L1 6L6 6L6 1ZM2 2L2 5L5 5L5 2ZM62 0L62 7L69 7L69 0ZM63 1L63 6L68 6L68 1ZM64 2L64 5L67 5L67 2ZM0 62L0 69L7 69L7 62ZM1 63L1 68L6 68L6 63ZM2 64L2 67L5 67L5 64Z" fill="#000000"/></g></g></svg>
