<?xml version="1.0" encoding="UTF-8"?>
<svg xmlns="http://www.w3.org/2000/svg" version="1.1" width="300" height="300" viewBox="0 0 300 300"><rect x="0" y="0" width="300" height="300" fill="#ffffff"/><g transform="scale(4.348)"><g transform="translate(0,0)"><path fill-rule="evenodd" d="M10 0L10 1L8 1L8 2L9 2L9 3L8 3L8 4L10 4L10 5L12 5L12 4L10 4L10 2L11 2L11 1L13 1L13 0ZM15 0L15 1L14 1L14 2L13 2L13 4L15 4L15 6L14 6L14 5L13 5L13 6L12 6L12 8L10 8L10 9L9 9L9 8L6 8L6 9L7 9L7 10L6 10L6 11L7 11L7 12L6 12L6 13L7 13L7 14L6 14L6 15L5 15L5 16L4 16L4 15L1 15L1 14L0 14L0 15L1 15L1 16L0 16L0 18L1 18L1 19L0 19L0 21L1 21L1 22L0 22L0 32L2 32L2 33L3 33L3 34L4 34L4 36L3 36L3 37L2 37L2 36L1 36L1 35L2 35L2 34L1 34L1 33L0 33L0 34L1 34L1 35L0 35L0 37L2 37L2 38L1 38L1 39L3 39L3 40L4 40L4 41L3 41L3 42L1 42L1 43L3 43L3 42L4 42L4 44L5 44L5 42L6 42L6 43L7 43L7 42L8 42L8 43L9 43L9 45L8 45L8 46L6 46L6 45L7 45L7 44L6 44L6 45L5 45L5 46L4 46L4 48L3 48L3 47L2 47L2 46L3 46L3 44L2 44L2 46L1 46L1 45L0 45L0 46L1 46L1 48L3 48L3 49L0 49L0 50L2 50L2 51L3 51L3 53L1 53L1 51L0 51L0 53L1 53L1 54L2 54L2 55L3 55L3 56L4 56L4 57L5 57L5 58L4 58L4 59L7 59L7 60L6 60L6 61L8 61L8 63L9 63L9 64L8 64L8 69L10 69L10 68L11 68L11 69L13 69L13 65L18 65L18 66L20 66L20 67L19 67L19 68L16 68L16 67L17 67L17 66L16 66L16 67L14 67L14 69L19 69L19 68L20 68L20 69L21 69L21 67L23 67L23 66L26 66L26 68L25 68L25 67L24 67L24 68L23 68L23 69L24 69L24 68L25 68L25 69L26 69L26 68L28 68L28 69L31 69L31 68L33 68L33 69L36 69L36 68L38 68L38 69L39 69L39 68L41 68L41 69L42 69L42 68L43 68L43 69L44 69L44 68L46 68L46 69L50 69L50 68L48 68L48 67L51 67L51 68L53 68L53 67L51 67L51 66L52 66L52 65L51 65L51 64L53 64L53 66L55 66L55 69L56 69L56 68L57 68L57 69L58 69L58 68L57 68L57 67L56 67L56 66L58 66L58 67L59 67L59 68L60 68L60 69L61 69L61 68L62 68L62 69L65 69L65 68L67 68L67 69L68 69L68 68L67 68L67 67L66 67L66 66L67 66L67 65L66 65L66 64L67 64L67 63L68 63L68 65L69 65L69 63L68 63L68 62L69 62L69 59L68 59L68 60L67 60L67 58L69 58L69 56L68 56L68 57L67 57L67 58L65 58L65 59L64 59L64 58L63 58L63 59L62 59L62 56L63 56L63 55L62 55L62 54L61 54L61 55L59 55L59 54L58 54L58 55L56 55L56 56L55 56L55 55L51 55L51 54L52 54L52 52L53 52L53 50L55 50L55 49L56 49L56 48L58 48L58 49L59 49L59 48L60 48L60 47L62 47L62 48L63 48L63 49L66 49L66 48L67 48L67 47L68 47L68 46L69 46L69 45L68 45L68 46L67 46L67 45L66 45L66 44L67 44L67 43L68 43L68 44L69 44L69 43L68 43L68 42L69 42L69 39L68 39L68 38L69 38L69 36L68 36L68 34L69 34L69 33L68 33L68 34L67 34L67 33L65 33L65 32L69 32L69 31L64 31L64 30L65 30L65 29L64 29L64 28L67 28L67 29L66 29L66 30L69 30L69 29L68 29L68 28L69 28L69 27L68 27L68 26L69 26L69 25L68 25L68 26L67 26L67 27L64 27L64 28L62 28L62 27L63 27L63 26L61 26L61 25L60 25L60 24L58 24L58 25L59 25L59 26L58 26L58 27L56 27L56 28L55 28L55 27L54 27L54 26L55 26L55 25L56 25L56 26L57 26L57 25L56 25L56 24L57 24L57 23L54 23L54 24L55 24L55 25L53 25L53 26L52 26L52 24L53 24L53 23L52 23L52 22L56 22L56 21L54 21L54 20L57 20L57 22L58 22L58 23L62 23L62 25L63 25L63 24L65 24L65 25L64 25L64 26L65 26L65 25L66 25L66 24L69 24L69 23L68 23L68 22L69 22L69 20L67 20L67 19L68 19L68 18L69 18L69 17L68 17L68 16L69 16L69 15L65 15L65 14L66 14L66 12L67 12L67 14L69 14L69 13L68 13L68 12L69 12L69 11L68 11L68 10L69 10L69 9L68 9L68 8L67 8L67 9L66 9L66 8L65 8L65 9L64 9L64 8L63 8L63 9L64 9L64 10L65 10L65 11L64 11L64 12L65 12L65 14L64 14L64 13L63 13L63 14L62 14L62 13L60 13L60 12L62 12L62 11L63 11L63 10L62 10L62 8L61 8L61 6L60 6L60 7L59 7L59 4L58 4L58 3L59 3L59 2L56 2L56 0L54 0L54 1L49 1L49 0L48 0L48 2L47 2L47 1L46 1L46 3L45 3L45 2L44 2L44 1L45 1L45 0L44 0L44 1L43 1L43 0L41 0L41 2L40 2L40 1L38 1L38 0L37 0L37 1L36 1L36 0L35 0L35 3L34 3L34 1L33 1L33 2L32 2L32 0L31 0L31 1L29 1L29 3L28 3L28 2L26 2L26 0L24 0L24 3L25 3L25 4L22 4L22 7L21 7L21 6L20 6L20 4L21 4L21 2L23 2L23 0L22 0L22 1L21 1L21 0L18 0L18 4L17 4L17 3L16 3L16 4L15 4L15 3L14 3L14 2L15 2L15 1L16 1L16 2L17 2L17 0ZM27 0L27 1L28 1L28 0ZM57 0L57 1L61 1L61 0ZM19 1L19 2L20 2L20 1ZM37 1L37 2L38 2L38 1ZM42 1L42 2L41 2L41 3L40 3L40 2L39 2L39 3L38 3L38 5L37 5L37 8L38 8L38 10L39 10L39 9L40 9L40 11L41 11L41 8L42 8L42 6L43 6L43 7L44 7L44 5L45 5L45 8L44 8L44 10L42 10L42 11L46 11L46 12L44 12L44 14L42 14L42 15L41 15L41 14L40 14L40 13L41 13L41 12L39 12L39 11L37 11L37 13L36 13L36 12L35 12L35 11L36 11L36 10L35 10L35 9L34 9L34 10L32 10L32 9L31 9L31 10L29 10L29 9L30 9L30 8L29 8L29 9L28 9L28 6L27 6L27 8L26 8L26 5L25 5L25 8L26 8L26 9L25 9L25 12L24 12L24 11L22 11L22 10L24 10L24 9L22 9L22 8L21 8L21 7L20 7L20 6L19 6L19 9L17 9L17 10L16 10L16 11L17 11L17 12L15 12L15 11L12 11L12 9L10 9L10 10L9 10L9 11L8 11L8 12L7 12L7 13L8 13L8 14L9 14L9 16L8 16L8 15L6 15L6 16L5 16L5 18L4 18L4 16L3 16L3 18L2 18L2 19L4 19L4 20L3 20L3 21L2 21L2 20L1 20L1 21L2 21L2 23L6 23L6 24L7 24L7 25L5 25L5 26L4 26L4 25L3 25L3 27L1 27L1 28L3 28L3 29L1 29L1 30L2 30L2 31L5 31L5 32L8 32L8 31L11 31L11 32L9 32L9 33L11 33L11 34L10 34L10 35L9 35L9 36L11 36L11 37L12 37L12 35L11 35L11 34L12 34L12 33L11 33L11 32L18 32L18 33L13 33L13 34L18 34L18 33L23 33L23 32L24 32L24 33L26 33L26 34L25 34L25 35L28 35L28 36L30 36L30 35L31 35L31 36L32 36L32 35L31 35L31 34L32 34L32 32L33 32L33 31L34 31L34 32L37 32L37 33L38 33L38 34L37 34L37 36L39 36L39 37L38 37L38 38L36 38L36 39L35 39L35 40L34 40L34 39L32 39L32 38L31 38L31 37L27 37L27 36L26 36L26 37L27 37L27 38L25 38L25 39L24 39L24 38L23 38L23 39L24 39L24 40L25 40L25 39L26 39L26 41L27 41L27 43L26 43L26 42L25 42L25 44L24 44L24 43L23 43L23 42L24 42L24 41L22 41L22 40L21 40L21 39L22 39L22 38L21 38L21 37L25 37L25 36L24 36L24 35L23 35L23 34L22 34L22 35L21 35L21 37L20 37L20 36L19 36L19 35L20 35L20 34L19 34L19 35L18 35L18 36L19 36L19 37L14 37L14 36L16 36L16 35L14 35L14 36L13 36L13 38L15 38L15 39L16 39L16 38L17 38L17 40L16 40L16 41L15 41L15 40L13 40L13 39L12 39L12 38L11 38L11 40L10 40L10 37L9 37L9 38L8 38L8 40L10 40L10 42L9 42L9 41L8 41L8 42L9 42L9 43L10 43L10 45L12 45L12 41L14 41L14 42L13 42L13 43L15 43L15 46L14 46L14 48L13 48L13 49L12 49L12 46L11 46L11 48L9 48L9 47L6 47L6 46L5 46L5 48L4 48L4 49L5 49L5 48L9 48L9 49L6 49L6 50L4 50L4 51L5 51L5 52L4 52L4 53L3 53L3 54L4 54L4 56L5 56L5 57L6 57L6 58L7 58L7 59L9 59L9 60L8 60L8 61L9 61L9 60L10 60L10 59L11 59L11 58L12 58L12 59L14 59L14 60L11 60L11 62L10 62L10 64L12 64L12 63L11 63L11 62L12 62L12 61L14 61L14 62L16 62L16 63L14 63L14 64L18 64L18 65L21 65L21 66L22 66L22 65L23 65L23 64L24 64L24 65L26 65L26 66L27 66L27 67L28 67L28 68L29 68L29 67L30 67L30 68L31 68L31 67L33 67L33 68L34 68L34 67L33 67L33 66L35 66L35 68L36 68L36 66L37 66L37 67L38 67L38 66L39 66L39 67L41 67L41 68L42 68L42 67L43 67L43 68L44 68L44 67L46 67L46 68L47 68L47 67L48 67L48 66L49 66L49 65L50 65L50 66L51 66L51 65L50 65L50 64L51 64L51 63L50 63L50 62L52 62L52 63L53 63L53 64L54 64L54 65L55 65L55 66L56 66L56 65L57 65L57 64L56 64L56 65L55 65L55 64L54 64L54 63L55 63L55 62L54 62L54 63L53 63L53 60L54 60L54 59L56 59L56 58L57 58L57 59L58 59L58 60L56 60L56 61L58 61L58 62L56 62L56 63L58 63L58 66L61 66L61 67L60 67L60 68L61 68L61 67L62 67L62 68L65 68L65 66L66 66L66 65L65 65L65 66L64 66L64 65L63 65L63 66L64 66L64 67L62 67L62 65L60 65L60 62L59 62L59 61L60 61L60 60L61 60L61 59L60 59L60 60L59 60L59 59L58 59L58 58L60 58L60 56L59 56L59 55L58 55L58 56L56 56L56 57L55 57L55 58L54 58L54 59L53 59L53 60L52 60L52 58L53 58L53 56L51 56L51 55L50 55L50 56L51 56L51 57L50 57L50 58L51 58L51 59L50 59L50 60L49 60L49 58L47 58L47 56L49 56L49 55L48 55L48 54L47 54L47 52L46 52L46 53L45 53L45 52L44 52L44 50L45 50L45 51L46 51L46 50L47 50L47 51L48 51L48 52L50 52L50 54L51 54L51 52L52 52L52 50L51 50L51 49L50 49L50 48L52 48L52 49L54 49L54 48L56 48L56 47L57 47L57 46L59 46L59 47L58 47L58 48L59 48L59 47L60 47L60 46L61 46L61 45L60 45L60 44L61 44L61 43L60 43L60 42L61 42L61 41L62 41L62 43L63 43L63 42L65 42L65 43L64 43L64 44L62 44L62 47L63 47L63 46L64 46L64 48L66 48L66 47L67 47L67 46L66 46L66 45L64 45L64 44L66 44L66 43L67 43L67 42L68 42L68 41L67 41L67 40L68 40L68 39L67 39L67 40L66 40L66 38L67 38L67 36L65 36L65 37L63 37L63 38L62 38L62 37L61 37L61 38L60 38L60 34L59 34L59 31L57 31L57 30L59 30L59 29L61 29L61 30L60 30L60 31L61 31L61 30L64 30L64 29L62 29L62 28L61 28L61 26L59 26L59 27L58 27L58 29L57 29L57 28L56 28L56 29L55 29L55 28L54 28L54 29L55 29L55 30L54 30L54 31L55 31L55 32L54 32L54 33L55 33L55 32L56 32L56 35L57 35L57 36L56 36L56 37L55 37L55 34L52 34L52 33L53 33L53 32L51 32L51 31L50 31L50 32L49 32L49 31L48 31L48 29L47 29L47 27L46 27L46 26L48 26L48 28L50 28L50 29L49 29L49 30L52 30L52 31L53 31L53 28L52 28L52 26L51 26L51 24L52 24L52 23L50 23L50 24L49 24L49 23L48 23L48 22L47 22L47 19L48 19L48 20L50 20L50 22L52 22L52 21L53 21L53 20L54 20L54 19L56 19L56 17L57 17L57 16L56 16L56 15L55 15L55 14L57 14L57 15L58 15L58 18L57 18L57 19L58 19L58 20L59 20L59 19L58 19L58 18L59 18L59 15L60 15L60 17L61 17L61 15L62 15L62 18L60 18L60 19L61 19L61 20L60 20L60 21L62 21L62 22L63 22L63 20L64 20L64 21L65 21L65 20L66 20L66 21L67 21L67 22L64 22L64 23L67 23L67 22L68 22L68 21L67 21L67 20L66 20L66 19L67 19L67 18L68 18L68 17L67 17L67 16L64 16L64 15L62 15L62 14L59 14L59 13L57 13L57 12L55 12L55 14L54 14L54 13L53 13L53 12L54 12L54 11L56 11L56 9L57 9L57 11L58 11L58 10L59 10L59 12L60 12L60 10L59 10L59 9L57 9L57 8L56 8L56 9L55 9L55 8L54 8L54 9L53 9L53 8L52 8L52 6L53 6L53 7L54 7L54 6L55 6L55 7L56 7L56 5L57 5L57 7L58 7L58 8L59 8L59 7L58 7L58 4L57 4L57 3L56 3L56 5L52 5L52 4L53 4L53 3L52 3L52 2L48 2L48 3L50 3L50 5L51 5L51 7L50 7L50 6L49 6L49 7L48 7L48 5L47 5L47 3L46 3L46 5L45 5L45 3L44 3L44 4L43 4L43 5L42 5L42 6L41 6L41 3L42 3L42 2L43 2L43 1ZM54 1L54 2L55 2L55 1ZM25 2L25 3L26 3L26 4L28 4L28 5L29 5L29 7L30 7L30 5L31 5L31 8L32 8L32 5L31 5L31 4L28 4L28 3L26 3L26 2ZM30 2L30 3L32 3L32 2ZM19 3L19 4L18 4L18 5L17 5L17 4L16 4L16 5L17 5L17 7L16 7L16 6L15 6L15 7L14 7L14 6L13 6L13 8L15 8L15 7L16 7L16 8L17 8L17 7L18 7L18 5L19 5L19 4L20 4L20 3ZM33 3L33 4L34 4L34 3ZM36 3L36 4L37 4L37 3ZM39 3L39 4L40 4L40 3ZM51 3L51 4L52 4L52 3ZM54 3L54 4L55 4L55 3ZM60 3L60 5L61 5L61 3ZM8 5L8 7L9 7L9 5ZM33 5L33 8L36 8L36 5ZM38 5L38 7L39 7L39 8L41 8L41 6L40 6L40 5ZM46 5L46 7L47 7L47 8L46 8L46 9L45 9L45 10L46 10L46 11L47 11L47 10L46 10L46 9L49 9L49 10L48 10L48 11L49 11L49 12L47 12L47 14L46 14L46 15L47 15L47 16L45 16L45 15L42 15L42 18L41 18L41 17L39 17L39 18L38 18L38 17L37 17L37 16L39 16L39 14L38 14L38 13L39 13L39 12L38 12L38 13L37 13L37 14L36 14L36 13L35 13L35 12L34 12L34 11L35 11L35 10L34 10L34 11L29 11L29 10L27 10L27 9L26 9L26 11L27 11L27 13L26 13L26 12L25 12L25 13L24 13L24 12L23 12L23 13L22 13L22 14L21 14L21 15L23 15L23 17L21 17L21 20L17 20L17 18L18 18L18 19L20 19L20 18L19 18L19 17L20 17L20 15L19 15L19 14L18 14L18 13L21 13L21 12L22 12L22 11L21 11L21 10L22 10L22 9L21 9L21 8L20 8L20 9L19 9L19 10L20 10L20 11L21 11L21 12L19 12L19 11L18 11L18 10L17 10L17 11L18 11L18 12L17 12L17 14L16 14L16 16L18 16L18 17L16 17L16 21L17 21L17 22L15 22L15 20L13 20L13 19L14 19L14 18L13 18L13 17L14 17L14 15L15 15L15 13L14 13L14 12L12 12L12 14L10 14L10 13L11 13L11 12L10 12L10 11L9 11L9 12L10 12L10 13L9 13L9 14L10 14L10 19L9 19L9 18L8 18L8 17L7 17L7 16L6 16L6 17L7 17L7 18L5 18L5 19L7 19L7 20L6 20L6 21L4 21L4 22L6 22L6 23L7 23L7 24L8 24L8 19L9 19L9 20L10 20L10 19L11 19L11 17L12 17L12 20L13 20L13 21L11 21L11 22L10 22L10 21L9 21L9 25L10 25L10 26L9 26L9 29L8 29L8 30L6 30L6 29L7 29L7 28L8 28L8 27L7 27L7 26L8 26L8 25L7 25L7 26L6 26L6 27L5 27L5 28L4 28L4 27L3 27L3 28L4 28L4 29L5 29L5 30L6 30L6 31L8 31L8 30L10 30L10 28L12 28L12 29L13 29L13 27L14 27L14 24L17 24L17 26L18 26L18 25L19 25L19 27L18 27L18 28L16 28L16 27L15 27L15 28L14 28L14 30L13 30L13 31L14 31L14 30L15 30L15 31L18 31L18 30L15 30L15 28L16 28L16 29L21 29L21 28L23 28L23 29L22 29L22 31L21 31L21 32L22 32L22 31L23 31L23 30L24 30L24 31L25 31L25 32L26 32L26 31L25 31L25 30L28 30L28 29L29 29L29 30L30 30L30 29L32 29L32 28L30 28L30 27L32 27L32 26L31 26L31 25L32 25L32 23L33 23L33 21L39 21L39 22L35 22L35 23L36 23L36 26L34 26L34 27L36 27L36 26L37 26L37 28L38 28L38 29L39 29L39 28L38 28L38 27L40 27L40 28L41 28L41 29L40 29L40 30L41 30L41 31L39 31L39 30L35 30L35 31L39 31L39 32L38 32L38 33L39 33L39 32L41 32L41 31L42 31L42 34L41 34L41 35L40 35L40 34L38 34L38 35L39 35L39 36L41 36L41 39L40 39L40 38L38 38L38 40L39 40L39 39L40 39L40 40L41 40L41 42L40 42L40 44L41 44L41 43L42 43L42 46L41 46L41 47L40 47L40 46L37 46L37 45L39 45L39 44L37 44L37 43L39 43L39 42L37 42L37 43L36 43L36 42L35 42L35 41L37 41L37 39L36 39L36 40L35 40L35 41L34 41L34 40L32 40L32 41L31 41L31 38L30 38L30 39L29 39L29 40L28 40L28 41L29 41L29 42L28 42L28 43L27 43L27 44L28 44L28 45L29 45L29 46L28 46L28 47L27 47L27 45L24 45L24 44L23 44L23 45L22 45L22 43L21 43L21 42L22 42L22 41L21 41L21 40L20 40L20 39L19 39L19 40L17 40L17 41L16 41L16 42L15 42L15 43L16 43L16 45L19 45L19 46L18 46L18 47L17 47L17 46L16 46L16 47L17 47L17 48L14 48L14 49L13 49L13 50L14 50L14 51L12 51L12 49L11 49L11 51L9 51L9 50L6 50L6 51L9 51L9 52L6 52L6 53L4 53L4 54L5 54L5 55L7 55L7 56L6 56L6 57L7 57L7 58L10 58L10 56L11 56L11 57L12 57L12 58L13 58L13 56L14 56L14 55L17 55L17 57L19 57L19 58L20 58L20 57L22 57L22 56L21 56L21 55L22 55L22 54L23 54L23 55L24 55L24 57L23 57L23 58L24 58L24 57L25 57L25 58L27 58L27 61L26 61L26 60L25 60L25 61L24 61L24 59L23 59L23 61L22 61L22 60L20 60L20 61L19 61L19 59L18 59L18 60L16 60L16 59L15 59L15 61L19 61L19 62L20 62L20 61L22 61L22 62L23 62L23 63L24 63L24 64L26 64L26 63L25 63L25 62L27 62L27 61L29 61L29 62L30 62L30 63L31 63L31 62L32 62L32 65L31 65L31 64L29 64L29 66L30 66L30 67L31 67L31 66L32 66L32 65L37 65L37 66L38 66L38 65L39 65L39 64L38 64L38 63L39 63L39 62L38 62L38 61L37 61L37 59L38 59L38 60L39 60L39 58L37 58L37 59L33 59L33 57L32 57L32 56L36 56L36 57L38 57L38 56L41 56L41 57L40 57L40 58L44 58L44 56L45 56L45 57L46 57L46 56L45 56L45 55L47 55L47 54L45 54L45 53L44 53L44 52L41 52L41 51L42 51L42 50L44 50L44 48L46 48L46 47L47 47L47 48L48 48L48 51L51 51L51 50L50 50L50 49L49 49L49 48L50 48L50 47L52 47L52 48L54 48L54 46L56 46L56 44L57 44L57 43L54 43L54 44L53 44L53 42L58 42L58 43L59 43L59 44L60 44L60 43L59 43L59 42L60 42L60 41L61 41L61 39L62 39L62 40L64 40L64 41L65 41L65 42L67 42L67 41L66 41L66 40L64 40L64 39L62 39L62 38L61 38L61 39L59 39L59 38L56 38L56 39L54 39L54 38L55 38L55 37L53 37L53 38L52 38L52 37L51 37L51 38L50 38L50 36L48 36L48 35L51 35L51 36L54 36L54 35L51 35L51 34L46 34L46 35L47 35L47 38L46 38L46 39L45 39L45 38L44 38L44 40L43 40L43 39L42 39L42 38L43 38L43 37L44 37L44 36L45 36L45 37L46 37L46 36L45 36L45 33L44 33L44 32L46 32L46 31L47 31L47 30L46 30L46 31L44 31L44 32L43 32L43 31L42 31L42 30L44 30L44 28L46 28L46 27L44 27L44 26L46 26L46 25L48 25L48 26L49 26L49 27L50 27L50 28L51 28L51 26L50 26L50 25L49 25L49 24L48 24L48 23L47 23L47 22L46 22L46 23L47 23L47 24L45 24L45 23L42 23L42 22L43 22L43 21L44 21L44 20L45 20L45 21L46 21L46 20L45 20L45 19L44 19L44 18L43 18L43 16L45 16L45 17L47 17L47 18L46 18L46 19L47 19L47 18L48 18L48 17L49 17L49 18L50 18L50 19L51 19L51 18L50 18L50 17L52 17L52 18L55 18L55 17L56 17L56 16L55 16L55 15L54 15L54 14L53 14L53 15L52 15L52 14L49 14L49 12L50 12L50 11L51 11L51 10L52 10L52 9L51 9L51 10L50 10L50 9L49 9L49 8L50 8L50 7L49 7L49 8L48 8L48 7L47 7L47 5ZM10 6L10 7L11 7L11 6ZM23 6L23 7L24 7L24 6ZM34 6L34 7L35 7L35 6ZM39 6L39 7L40 7L40 6ZM0 8L0 9L1 9L1 10L2 10L2 11L0 11L0 12L2 12L2 13L3 13L3 12L5 12L5 10L4 10L4 9L5 9L5 8ZM60 8L60 9L61 9L61 8ZM14 9L14 10L15 10L15 9ZM20 9L20 10L21 10L21 9ZM54 9L54 10L53 10L53 11L52 11L52 12L53 12L53 11L54 11L54 10L55 10L55 9ZM65 9L65 10L66 10L66 9ZM3 10L3 11L4 11L4 10ZM61 10L61 11L62 11L62 10ZM28 11L28 12L29 12L29 11ZM31 12L31 13L30 13L30 14L31 14L31 13L32 13L32 12ZM33 12L33 14L34 14L34 12ZM42 12L42 13L43 13L43 12ZM27 13L27 16L28 16L28 17L25 17L25 16L26 16L26 15L25 15L25 16L24 16L24 17L25 17L25 18L26 18L26 21L27 21L27 22L28 22L28 23L29 23L29 24L30 24L30 25L28 25L28 24L26 24L26 22L22 22L22 21L23 21L23 18L22 18L22 21L20 21L20 23L21 23L21 24L22 24L22 25L20 25L20 26L23 26L23 27L24 27L24 29L25 29L25 28L26 28L26 29L28 29L28 28L29 28L29 27L30 27L30 25L31 25L31 22L32 22L32 20L38 20L38 19L35 19L35 16L36 16L36 15L35 15L35 16L34 16L34 15L30 15L30 16L32 16L32 18L33 18L33 19L30 19L30 20L29 20L29 21L27 21L27 20L28 20L28 19L27 19L27 18L28 18L28 17L29 17L29 13ZM17 14L17 15L18 15L18 14ZM37 14L37 15L38 15L38 14ZM47 14L47 15L48 15L48 16L49 16L49 17L50 17L50 16L52 16L52 17L54 17L54 15L53 15L53 16L52 16L52 15L50 15L50 16L49 16L49 15L48 15L48 14ZM58 14L58 15L59 15L59 14ZM11 15L11 16L13 16L13 15ZM40 15L40 16L41 16L41 15ZM1 16L1 17L2 17L2 16ZM33 16L33 17L34 17L34 16ZM63 16L63 18L62 18L62 20L63 20L63 19L64 19L64 20L65 20L65 19L66 19L66 18L67 18L67 17L65 17L65 19L64 19L64 16ZM30 17L30 18L31 18L31 17ZM36 17L36 18L37 18L37 17ZM7 18L7 19L8 19L8 18ZM42 18L42 19L41 19L41 20L40 20L40 19L39 19L39 21L40 21L40 22L39 22L39 23L37 23L37 24L38 24L38 26L39 26L39 25L40 25L40 27L41 27L41 28L43 28L43 26L42 26L42 27L41 27L41 24L42 24L42 23L41 23L41 20L42 20L42 19L43 19L43 20L44 20L44 19L43 19L43 18ZM52 19L52 20L51 20L51 21L52 21L52 20L53 20L53 19ZM24 20L24 21L25 21L25 20ZM30 20L30 21L29 21L29 23L30 23L30 21L31 21L31 20ZM6 21L6 22L7 22L7 21ZM18 21L18 23L17 23L17 24L19 24L19 21ZM58 21L58 22L59 22L59 21ZM13 22L13 23L15 23L15 22ZM21 22L21 23L22 23L22 22ZM23 23L23 24L24 24L24 25L23 25L23 26L24 26L24 25L25 25L25 26L27 26L27 25L26 25L26 24L25 24L25 23ZM40 23L40 24L41 24L41 23ZM10 24L10 25L11 25L11 24ZM34 24L34 25L35 25L35 24ZM44 24L44 25L45 25L45 24ZM12 25L12 26L11 26L11 27L12 27L12 26L13 26L13 25ZM15 25L15 26L16 26L16 25ZM28 26L28 27L27 27L27 28L28 28L28 27L29 27L29 26ZM6 27L6 28L5 28L5 29L6 29L6 28L7 28L7 27ZM19 27L19 28L20 28L20 27ZM67 27L67 28L68 28L68 27ZM33 28L33 30L31 30L31 31L30 31L30 32L29 32L29 34L30 34L30 33L31 33L31 31L33 31L33 30L34 30L34 29L36 29L36 28ZM19 30L19 31L20 31L20 30ZM56 31L56 32L57 32L57 31ZM62 31L62 32L64 32L64 31ZM47 32L47 33L49 33L49 32ZM50 32L50 33L51 33L51 32ZM5 33L5 36L8 36L8 33ZM27 33L27 34L28 34L28 33ZM33 33L33 36L36 36L36 33ZM43 33L43 34L42 34L42 35L41 35L41 36L42 36L42 35L43 35L43 34L44 34L44 33ZM61 33L61 36L64 36L64 33ZM6 34L6 35L7 35L7 34ZM34 34L34 35L35 35L35 34ZM57 34L57 35L59 35L59 34ZM62 34L62 35L63 35L63 34ZM65 34L65 35L67 35L67 34ZM22 35L22 36L23 36L23 35ZM57 36L57 37L58 37L58 36ZM4 37L4 38L3 38L3 39L4 39L4 38L5 38L5 39L6 39L6 40L5 40L5 41L6 41L6 42L7 42L7 41L6 41L6 40L7 40L7 39L6 39L6 38L7 38L7 37ZM19 37L19 38L20 38L20 37ZM33 37L33 38L35 38L35 37ZM27 38L27 39L28 39L28 38ZM47 38L47 39L46 39L46 40L44 40L44 41L43 41L43 42L42 42L42 43L43 43L43 42L47 42L47 41L46 41L46 40L49 40L49 42L51 42L51 43L48 43L48 44L47 44L47 43L46 43L46 44L44 44L44 45L45 45L45 46L42 46L42 47L41 47L41 48L40 48L40 47L37 47L37 48L38 48L38 50L36 50L36 49L35 49L35 48L36 48L36 47L35 47L35 46L34 46L34 45L35 45L35 44L36 44L36 43L35 43L35 42L34 42L34 41L33 41L33 43L32 43L32 42L31 42L31 43L30 43L30 42L29 42L29 43L28 43L28 44L29 44L29 43L30 43L30 44L31 44L31 45L30 45L30 46L29 46L29 47L30 47L30 46L32 46L32 47L33 47L33 49L32 49L32 50L31 50L31 49L30 49L30 50L31 50L31 53L28 53L28 51L27 51L27 50L28 50L28 49L29 49L29 48L28 48L28 49L25 49L25 48L26 48L26 47L22 47L22 49L21 49L21 46L22 46L22 45L20 45L20 43L19 43L19 41L20 41L20 42L21 42L21 41L20 41L20 40L19 40L19 41L17 41L17 42L18 42L18 43L19 43L19 45L20 45L20 46L19 46L19 47L20 47L20 49L19 49L19 50L18 50L18 51L17 51L17 49L18 49L18 48L17 48L17 49L14 49L14 50L16 50L16 51L15 51L15 52L21 52L21 51L22 51L22 49L25 49L25 50L26 50L26 51L27 51L27 52L26 52L26 53L25 53L25 51L23 51L23 52L22 52L22 53L20 53L20 54L19 54L19 53L18 53L18 54L19 54L19 55L18 55L18 56L19 56L19 57L20 57L20 54L22 54L22 53L25 53L25 54L24 54L24 55L25 55L25 54L26 54L26 55L27 55L27 54L28 54L28 56L26 56L26 57L27 57L27 58L29 58L29 59L28 59L28 60L29 60L29 61L30 61L30 62L31 62L31 61L32 61L32 60L33 60L33 59L32 59L32 58L31 58L31 59L32 59L32 60L31 60L31 61L30 61L30 57L31 57L31 56L32 56L32 54L31 54L31 53L32 53L32 50L33 50L33 51L34 51L34 50L33 50L33 49L35 49L35 50L36 50L36 51L35 51L35 53L34 53L34 52L33 52L33 53L34 53L34 54L33 54L33 55L35 55L35 53L36 53L36 55L37 55L37 56L38 56L38 55L41 55L41 56L42 56L42 55L43 55L43 56L44 56L44 55L43 55L43 54L44 54L44 53L43 53L43 54L42 54L42 55L41 55L41 54L40 54L40 53L41 53L41 52L40 52L40 51L41 51L41 50L42 50L42 49L43 49L43 48L44 48L44 47L46 47L46 46L47 46L47 47L48 47L48 48L49 48L49 46L52 46L52 47L53 47L53 44L52 44L52 42L53 42L53 41L55 41L55 40L51 40L51 41L50 41L50 39L48 39L48 38ZM41 39L41 40L42 40L42 39ZM58 39L58 40L59 40L59 41L58 41L58 42L59 42L59 41L60 41L60 40L59 40L59 39ZM0 40L0 41L1 41L1 40ZM29 40L29 41L30 41L30 40ZM56 40L56 41L57 41L57 40ZM51 41L51 42L52 42L52 41ZM31 43L31 44L32 44L32 43ZM34 43L34 44L35 44L35 43ZM13 44L13 45L14 45L14 44ZM48 44L48 45L49 45L49 44ZM54 44L54 45L55 45L55 44ZM23 45L23 46L24 46L24 45ZM32 45L32 46L33 46L33 47L34 47L34 48L35 48L35 47L34 47L34 46L33 46L33 45ZM65 46L65 47L66 47L66 46ZM42 47L42 48L43 48L43 47ZM68 48L68 49L67 49L67 51L65 51L65 50L64 50L64 51L65 51L65 52L64 52L64 53L63 53L63 54L64 54L64 53L66 53L66 54L65 54L65 55L66 55L66 56L64 56L64 57L66 57L66 56L67 56L67 55L68 55L68 54L69 54L69 53L68 53L68 54L67 54L67 53L66 53L66 52L68 52L68 50L69 50L69 48ZM19 50L19 51L20 51L20 50ZM38 50L38 51L36 51L36 52L37 52L37 53L38 53L38 51L40 51L40 50ZM56 50L56 51L54 51L54 52L57 52L57 53L58 53L58 52L60 52L60 53L62 53L62 52L63 52L63 51L59 51L59 50L58 50L58 52L57 52L57 50ZM11 51L11 52L10 52L10 53L6 53L6 54L7 54L7 55L9 55L9 54L10 54L10 53L12 53L12 51ZM29 51L29 52L30 52L30 51ZM13 53L13 54L12 54L12 55L14 55L14 54L17 54L17 53ZM26 53L26 54L27 54L27 53ZM53 53L53 54L55 54L55 53ZM29 54L29 55L30 55L30 54ZM66 54L66 55L67 55L67 54ZM0 55L0 56L1 56L1 57L0 57L0 61L1 61L1 58L2 58L2 59L3 59L3 58L2 58L2 56L1 56L1 55ZM61 55L61 56L62 56L62 55ZM28 56L28 57L30 57L30 56ZM58 56L58 57L59 57L59 56ZM15 57L15 58L16 58L16 57ZM34 57L34 58L35 58L35 57ZM51 57L51 58L52 58L52 57ZM45 58L45 59L40 59L40 60L42 60L42 61L40 61L40 62L44 62L44 60L46 60L46 59L47 59L47 58ZM3 60L3 61L5 61L5 60ZM47 60L47 61L48 61L48 62L50 62L50 61L49 61L49 60ZM58 60L58 61L59 61L59 60ZM65 60L65 62L66 62L66 61L67 61L67 60ZM33 61L33 64L36 64L36 61ZM61 61L61 64L64 64L64 61ZM17 62L17 63L18 63L18 62ZM34 62L34 63L35 63L35 62ZM46 62L46 63L40 63L40 64L41 64L41 66L43 66L43 67L44 67L44 66L45 66L45 65L44 65L44 66L43 66L43 65L42 65L42 64L46 64L46 63L47 63L47 66L46 66L46 67L47 67L47 66L48 66L48 65L49 65L49 64L50 64L50 63L49 63L49 64L48 64L48 63L47 63L47 62ZM58 62L58 63L59 63L59 62ZM62 62L62 63L63 63L63 62ZM20 63L20 64L21 64L21 65L22 65L22 64L21 64L21 63ZM37 64L37 65L38 65L38 64ZM9 65L9 67L11 67L11 68L12 68L12 65ZM27 65L27 66L28 66L28 65ZM30 65L30 66L31 66L31 65ZM0 0L0 7L7 7L7 0ZM1 1L1 6L6 6L6 1ZM2 2L2 5L5 5L5 2ZM62 0L62 7L69 7L69 0ZM63 1L63 6L68 6L68 1ZM64 2L64 5L67 5L67 2ZM0 62L0 69L7 69L7 62ZM1 63L1 68L6 68L6 63ZM2 64L2 67L5 67L5 64Z" fill="#000000"/></g></g></svg>
