<?xml version="1.0" encoding="UTF-8"?>
<svg xmlns="http://www.w3.org/2000/svg" version="1.1" width="300" height="300" viewBox="0 0 300 300"><rect x="0" y="0" width="300" height="300" fill="#ffffff"/><g transform="scale(4.348)"><g transform="translate(0,0)"><path fill-rule="evenodd" d="M9 0L9 1L8 1L8 2L10 2L10 1L11 1L11 0ZM12 0L12 1L13 1L13 2L12 2L12 4L13 4L13 3L14 3L14 1L17 1L17 2L18 2L18 3L16 3L16 2L15 2L15 3L16 3L16 4L15 4L15 5L13 5L13 6L12 6L12 5L8 5L8 7L9 7L9 6L10 6L10 8L11 8L11 9L10 9L10 11L9 11L9 8L6 8L6 9L7 9L7 10L5 10L5 8L0 8L0 9L1 9L1 11L0 11L0 13L3 13L3 11L7 11L7 12L6 12L6 13L5 13L5 12L4 12L4 14L6 14L6 15L7 15L7 16L5 16L5 15L2 15L2 14L1 14L1 15L0 15L0 16L2 16L2 17L4 17L4 18L3 18L3 19L1 19L1 17L0 17L0 21L2 21L2 22L3 22L3 23L4 23L4 24L0 24L0 26L2 26L2 28L3 28L3 25L4 25L4 26L5 26L5 27L4 27L4 28L5 28L5 31L4 31L4 33L3 33L3 32L2 32L2 31L3 31L3 30L2 30L2 29L1 29L1 27L0 27L0 30L1 30L1 31L0 31L0 32L1 32L1 33L2 33L2 35L3 35L3 37L2 37L2 38L1 38L1 40L2 40L2 42L3 42L3 43L4 43L4 44L3 44L3 45L2 45L2 46L1 46L1 44L0 44L0 46L1 46L1 47L0 47L0 48L1 48L1 50L0 50L0 51L1 51L1 52L0 52L0 53L1 53L1 52L2 52L2 53L4 53L4 54L3 54L3 55L2 55L2 54L1 54L1 55L0 55L0 56L1 56L1 57L0 57L0 61L1 61L1 57L2 57L2 59L3 59L3 56L4 56L4 57L5 57L5 58L4 58L4 59L7 59L7 60L6 60L6 61L8 61L8 63L10 63L10 64L8 64L8 69L9 69L9 68L11 68L11 69L13 69L13 68L14 68L14 69L15 69L15 68L16 68L16 69L19 69L19 68L20 68L20 69L21 69L21 67L22 67L22 68L23 68L23 69L24 69L24 68L25 68L25 69L26 69L26 67L24 67L24 68L23 68L23 66L26 66L26 65L24 65L24 64L26 64L26 63L25 63L25 62L28 62L28 61L29 61L29 62L30 62L30 63L31 63L31 62L32 62L32 65L31 65L31 64L29 64L29 66L30 66L30 65L31 65L31 66L32 66L32 65L35 65L35 66L33 66L33 67L29 67L29 68L28 68L28 67L27 67L27 69L31 69L31 68L33 68L33 67L36 67L36 68L35 68L35 69L36 69L36 68L38 68L38 69L39 69L39 68L41 68L41 69L42 69L42 68L43 68L43 69L44 69L44 68L45 68L45 69L46 69L46 68L45 68L45 65L44 65L44 64L46 64L46 63L47 63L47 66L46 66L46 67L47 67L47 69L50 69L50 68L48 68L48 67L49 67L49 66L50 66L50 67L52 67L52 68L51 68L51 69L52 69L52 68L53 68L53 69L54 69L54 68L55 68L55 69L56 69L56 68L58 68L58 69L59 69L59 68L58 68L58 67L60 67L60 68L62 68L62 69L66 69L66 68L67 68L67 69L68 69L68 68L67 68L67 67L65 67L65 68L62 68L62 67L64 67L64 66L65 66L65 65L66 65L66 66L67 66L67 65L66 65L66 64L68 64L68 65L69 65L69 64L68 64L68 62L69 62L69 59L68 59L68 60L67 60L67 59L65 59L65 58L69 58L69 57L66 57L66 56L68 56L68 54L69 54L69 53L68 53L68 54L67 54L67 53L66 53L66 52L68 52L68 50L69 50L69 49L68 49L68 48L67 48L67 47L68 47L68 46L69 46L69 45L66 45L66 44L67 44L67 43L68 43L68 44L69 44L69 43L68 43L68 42L69 42L69 41L68 41L68 42L67 42L67 41L66 41L66 40L69 40L69 39L67 39L67 38L69 38L69 36L68 36L68 34L69 34L69 33L68 33L68 32L67 32L67 31L68 31L68 30L69 30L69 29L68 29L68 28L69 28L69 27L68 27L68 26L69 26L69 25L68 25L68 26L67 26L67 27L64 27L64 28L65 28L65 29L66 29L66 30L67 30L67 31L65 31L65 30L64 30L64 29L63 29L63 30L62 30L62 28L61 28L61 27L63 27L63 26L61 26L61 25L60 25L60 24L58 24L58 25L59 25L59 26L58 26L58 27L56 27L56 24L57 24L57 23L59 23L59 22L62 22L62 25L63 25L63 24L65 24L65 25L64 25L64 26L65 26L65 25L66 25L66 24L67 24L67 23L68 23L68 24L69 24L69 23L68 23L68 22L69 22L69 20L67 20L67 19L68 19L68 18L69 18L69 17L68 17L68 18L67 18L67 17L66 17L66 18L65 18L65 19L64 19L64 16L69 16L69 15L64 15L64 14L66 14L66 12L67 12L67 14L69 14L69 13L68 13L68 12L69 12L69 11L68 11L68 10L69 10L69 9L68 9L68 8L67 8L67 9L66 9L66 8L65 8L65 9L64 9L64 8L63 8L63 9L64 9L64 10L65 10L65 11L63 11L63 10L62 10L62 8L61 8L61 6L60 6L60 7L59 7L59 4L58 4L58 3L59 3L59 2L56 2L56 0L54 0L54 1L53 1L53 0L52 0L52 1L53 1L53 2L52 2L52 3L51 3L51 5L50 5L50 3L48 3L48 2L49 2L49 1L50 1L50 2L51 2L51 1L50 1L50 0L48 0L48 2L47 2L47 1L46 1L46 2L45 2L45 1L44 1L44 2L42 2L42 1L43 1L43 0L41 0L41 2L40 2L40 1L36 1L36 0L35 0L35 2L37 2L37 3L34 3L34 1L33 1L33 2L32 2L32 0L31 0L31 1L30 1L30 3L28 3L28 2L27 2L27 3L28 3L28 4L31 4L31 5L30 5L30 7L29 7L29 6L28 6L28 5L27 5L27 4L26 4L26 3L25 3L25 1L26 1L26 0L24 0L24 3L23 3L23 2L22 2L22 3L23 3L23 4L22 4L22 7L21 7L21 6L20 6L20 7L21 7L21 8L20 8L20 9L19 9L19 5L20 5L20 4L21 4L21 0L18 0L18 1L17 1L17 0L14 0L14 1L13 1L13 0ZM22 0L22 1L23 1L23 0ZM27 0L27 1L28 1L28 0ZM57 0L57 1L61 1L61 0ZM19 1L19 2L20 2L20 1ZM54 1L54 2L53 2L53 3L52 3L52 4L53 4L53 5L52 5L52 6L51 6L51 7L50 7L50 6L49 6L49 7L48 7L48 5L47 5L47 2L46 2L46 4L45 4L45 3L44 3L44 4L43 4L43 5L42 5L42 6L41 6L41 3L42 3L42 2L41 2L41 3L40 3L40 2L38 2L38 3L37 3L37 4L38 4L38 5L37 5L37 9L38 9L38 10L40 10L40 9L41 9L41 8L42 8L42 6L43 6L43 7L44 7L44 5L45 5L45 7L46 7L46 9L45 9L45 8L44 8L44 10L42 10L42 11L46 11L46 12L44 12L44 14L40 14L40 13L43 13L43 12L40 12L40 11L37 11L37 13L36 13L36 12L35 12L35 11L36 11L36 10L35 10L35 9L33 9L33 10L32 10L32 9L31 9L31 10L29 10L29 9L30 9L30 8L29 8L29 7L28 7L28 6L27 6L27 8L26 8L26 4L25 4L25 3L24 3L24 4L23 4L23 5L24 5L24 6L23 6L23 8L24 8L24 6L25 6L25 8L26 8L26 9L25 9L25 12L24 12L24 11L20 11L20 10L21 10L21 9L22 9L22 10L24 10L24 9L22 9L22 8L21 8L21 9L20 9L20 10L19 10L19 9L17 9L17 11L16 11L16 10L15 10L15 7L16 7L16 6L17 6L17 7L18 7L18 5L19 5L19 4L16 4L16 6L15 6L15 7L14 7L14 6L13 6L13 7L12 7L12 6L11 6L11 8L14 8L14 9L12 9L12 10L11 10L11 11L10 11L10 12L9 12L9 11L8 11L8 10L7 10L7 11L8 11L8 13L9 13L9 14L8 14L8 15L10 15L10 16L9 16L9 18L8 18L8 19L6 19L6 18L7 18L7 17L5 17L5 18L4 18L4 19L3 19L3 20L2 20L2 21L3 21L3 20L4 20L4 21L5 21L5 22L4 22L4 23L5 23L5 25L6 25L6 26L8 26L8 29L6 29L6 30L7 30L7 31L5 31L5 32L9 32L9 31L10 31L10 30L11 30L11 31L12 31L12 32L11 32L11 33L10 33L10 34L9 34L9 35L10 35L10 36L9 36L9 37L11 37L11 35L10 35L10 34L12 34L12 36L14 36L14 37L12 37L12 38L9 38L9 39L10 39L10 43L11 43L11 42L12 42L12 44L9 44L9 43L8 43L8 42L9 42L9 41L8 41L8 40L7 40L7 39L8 39L8 37L4 37L4 38L2 38L2 40L3 40L3 41L6 41L6 42L5 42L5 43L6 43L6 44L7 44L7 45L6 45L6 46L10 46L10 47L9 47L9 48L7 48L7 47L5 47L5 46L4 46L4 48L3 48L3 49L2 49L2 50L1 50L1 51L2 51L2 52L3 52L3 51L2 51L2 50L7 50L7 51L6 51L6 52L7 52L7 53L5 53L5 54L4 54L4 55L6 55L6 56L5 56L5 57L6 57L6 58L8 58L8 59L9 59L9 62L11 62L11 63L14 63L14 64L18 64L18 65L14 65L14 68L15 68L15 67L16 67L16 68L17 68L17 67L18 67L18 68L19 68L19 67L20 67L20 66L19 66L19 67L18 67L18 65L21 65L21 66L22 66L22 65L23 65L23 64L24 64L24 63L23 63L23 62L22 62L22 61L25 61L25 60L26 60L26 61L28 61L28 60L29 60L29 61L30 61L30 62L31 62L31 61L32 61L32 60L33 60L33 59L35 59L35 58L36 58L36 59L37 59L37 61L38 61L38 62L40 62L40 63L37 63L37 64L39 64L39 65L38 65L38 66L39 66L39 67L41 67L41 68L42 68L42 67L43 67L43 68L44 68L44 65L43 65L43 66L42 66L42 63L46 63L46 62L47 62L47 63L48 63L48 64L49 64L49 62L47 62L47 60L50 60L50 62L52 62L52 63L50 63L50 66L51 66L51 64L52 64L52 66L53 66L53 67L55 67L55 68L56 68L56 67L57 67L57 66L59 66L59 65L60 65L60 66L61 66L61 67L62 67L62 65L60 65L60 64L59 64L59 63L58 63L58 62L59 62L59 61L60 61L60 60L59 60L59 59L64 59L64 58L65 58L65 57L62 57L62 58L61 58L61 57L60 57L60 56L59 56L59 55L63 55L63 56L66 56L66 55L67 55L67 54L66 54L66 53L64 53L64 52L66 52L66 51L67 51L67 50L66 50L66 49L67 49L67 48L66 48L66 47L67 47L67 46L66 46L66 45L64 45L64 44L66 44L66 43L67 43L67 42L66 42L66 43L65 43L65 41L64 41L64 40L66 40L66 38L67 38L67 36L65 36L65 37L63 37L63 38L62 38L62 37L61 37L61 38L60 38L60 34L59 34L59 32L60 32L60 31L62 31L62 32L64 32L64 30L63 30L63 31L62 31L62 30L59 30L59 29L61 29L61 28L60 28L60 27L61 27L61 26L60 26L60 27L58 27L58 28L59 28L59 29L57 29L57 28L54 28L54 29L55 29L55 30L54 30L54 31L55 31L55 32L54 32L54 33L55 33L55 32L56 32L56 35L57 35L57 36L56 36L56 37L55 37L55 38L54 38L54 39L53 39L53 38L51 38L51 36L52 36L52 37L54 37L54 36L55 36L55 34L53 34L53 32L52 32L52 31L53 31L53 28L52 28L52 26L53 26L53 27L55 27L55 26L53 26L53 24L54 24L54 25L55 25L55 24L54 24L54 23L57 23L57 22L59 22L59 21L61 21L61 20L59 20L59 19L58 19L58 18L59 18L59 15L60 15L60 17L61 17L61 15L60 15L60 14L59 14L59 13L62 13L62 14L63 14L63 13L65 13L65 12L63 12L63 11L62 11L62 10L61 10L61 11L62 11L62 12L60 12L60 10L59 10L59 9L57 9L57 8L56 8L56 10L53 10L53 8L55 8L55 7L56 7L56 5L57 5L57 7L58 7L58 8L59 8L59 7L58 7L58 4L57 4L57 3L56 3L56 5L54 5L54 4L55 4L55 3L54 3L54 2L55 2L55 1ZM31 2L31 3L32 3L32 2ZM8 3L8 4L11 4L11 3ZM33 3L33 4L34 4L34 3ZM39 3L39 4L40 4L40 3ZM53 3L53 4L54 4L54 3ZM60 3L60 5L61 5L61 3ZM24 4L24 5L25 5L25 4ZM31 5L31 8L32 8L32 5ZM33 5L33 8L36 8L36 5ZM38 5L38 8L39 8L39 6L40 6L40 8L41 8L41 6L40 6L40 5ZM46 5L46 7L47 7L47 9L48 9L48 10L49 10L49 12L48 12L48 11L47 11L47 10L46 10L46 11L47 11L47 13L48 13L48 15L47 15L47 14L46 14L46 15L47 15L47 16L45 16L45 15L40 15L40 16L41 16L41 17L39 17L39 16L38 16L38 17L37 17L37 14L38 14L38 15L39 15L39 14L38 14L38 13L40 13L40 12L38 12L38 13L37 13L37 14L36 14L36 13L35 13L35 12L34 12L34 11L35 11L35 10L34 10L34 11L29 11L29 10L27 10L27 9L26 9L26 12L25 12L25 13L22 13L22 12L17 12L17 14L18 14L18 15L17 15L17 16L14 16L14 18L13 18L13 17L10 17L10 18L9 18L9 19L8 19L8 20L6 20L6 19L4 19L4 20L6 20L6 21L8 21L8 23L7 23L7 22L6 22L6 23L7 23L7 24L6 24L6 25L7 25L7 24L8 24L8 25L9 25L9 29L11 29L11 30L12 30L12 31L15 31L15 33L18 33L18 35L19 35L19 36L17 36L17 34L14 34L14 36L15 36L15 35L16 35L16 37L14 37L14 39L13 39L13 38L12 38L12 39L13 39L13 41L12 41L12 40L11 40L11 41L12 41L12 42L13 42L13 43L14 43L14 42L13 42L13 41L16 41L16 42L15 42L15 43L16 43L16 45L15 45L15 44L12 44L12 46L11 46L11 47L12 47L12 48L13 48L13 49L14 49L14 51L11 51L11 52L10 52L10 53L11 53L11 54L9 54L9 53L8 53L8 54L9 54L9 55L7 55L7 54L6 54L6 55L7 55L7 56L6 56L6 57L7 57L7 56L9 56L9 57L8 57L8 58L9 58L9 59L10 59L10 60L11 60L11 59L10 59L10 58L9 58L9 57L10 57L10 56L9 56L9 55L12 55L12 54L15 54L15 53L17 53L17 54L16 54L16 55L17 55L17 57L19 57L19 58L20 58L20 57L22 57L22 56L21 56L21 55L22 55L22 54L23 54L23 56L24 56L24 57L23 57L23 58L24 58L24 57L25 57L25 59L26 59L26 58L27 58L27 60L28 60L28 59L29 59L29 58L27 58L27 57L26 57L26 56L27 56L27 55L26 55L26 54L27 54L27 53L26 53L26 51L25 51L25 49L28 49L28 50L27 50L27 51L28 51L28 53L29 53L29 55L28 55L28 57L30 57L30 61L31 61L31 60L32 60L32 59L33 59L33 57L32 57L32 56L33 56L33 54L34 54L34 53L35 53L35 51L36 51L36 52L37 52L37 53L38 53L38 52L39 52L39 51L40 51L40 52L41 52L41 53L40 53L40 54L41 54L41 55L39 55L39 56L41 56L41 58L40 58L40 57L39 57L39 58L38 58L38 55L36 55L36 54L35 54L35 56L36 56L36 57L37 57L37 58L38 58L38 60L39 60L39 59L40 59L40 60L42 60L42 61L41 61L41 63L40 63L40 64L41 64L41 63L42 63L42 62L44 62L44 60L46 60L46 59L47 59L47 58L48 58L48 57L49 57L49 59L50 59L50 60L51 60L51 58L52 58L52 60L53 60L53 63L52 63L52 64L53 64L53 66L55 66L55 67L56 67L56 66L57 66L57 65L58 65L58 63L56 63L56 60L57 60L57 62L58 62L58 61L59 61L59 60L57 60L57 57L56 57L56 56L58 56L58 57L59 57L59 58L58 58L58 59L59 59L59 58L60 58L60 57L59 57L59 56L58 56L58 55L59 55L59 54L58 54L58 52L57 52L57 50L58 50L58 51L59 51L59 52L60 52L60 53L62 53L62 52L63 52L63 51L66 51L66 50L63 50L63 49L66 49L66 48L64 48L64 46L63 46L63 47L62 47L62 44L64 44L64 43L62 43L62 42L64 42L64 41L63 41L63 40L64 40L64 39L62 39L62 38L61 38L61 39L62 39L62 42L61 42L61 41L59 41L59 40L60 40L60 39L59 39L59 38L58 38L58 39L56 39L56 38L55 38L55 41L54 41L54 40L53 40L53 39L51 39L51 38L50 38L50 36L48 36L48 35L52 35L52 36L53 36L53 34L46 34L46 35L47 35L47 38L46 38L46 39L47 39L47 40L46 40L46 41L49 41L49 40L48 40L48 39L50 39L50 41L51 41L51 42L48 42L48 43L50 43L50 45L49 45L49 44L47 44L47 45L48 45L48 46L46 46L46 47L44 47L44 48L42 48L42 49L41 49L41 51L40 51L40 50L38 50L38 49L39 49L39 48L37 48L37 47L40 47L40 48L41 48L41 47L42 47L42 46L45 46L45 45L44 45L44 44L46 44L46 43L47 43L47 42L46 42L46 43L45 43L45 42L43 42L43 41L44 41L44 40L45 40L45 39L44 39L44 38L45 38L45 37L46 37L46 36L45 36L45 33L44 33L44 34L43 34L43 32L46 32L46 31L48 31L48 30L46 30L46 31L42 31L42 30L44 30L44 28L46 28L46 27L47 27L47 29L49 29L49 32L47 32L47 33L49 33L49 32L50 32L50 31L52 31L52 30L50 30L50 29L51 29L51 28L50 28L50 27L51 27L51 26L52 26L52 24L53 24L53 23L52 23L52 22L57 22L57 21L59 21L59 20L58 20L58 19L57 19L57 18L58 18L58 15L59 15L59 14L58 14L58 13L59 13L59 10L58 10L58 11L57 11L57 10L56 10L56 11L54 11L54 12L53 12L53 11L52 11L52 12L53 12L53 13L54 13L54 14L53 14L53 15L52 15L52 14L50 14L50 13L49 13L49 12L50 12L50 11L51 11L51 10L52 10L52 9L51 9L51 10L50 10L50 9L49 9L49 8L50 8L50 7L49 7L49 8L48 8L48 7L47 7L47 5ZM53 5L53 6L52 6L52 8L53 8L53 6L54 6L54 7L55 7L55 6L54 6L54 5ZM34 6L34 7L35 7L35 6ZM28 8L28 9L29 9L29 8ZM60 8L60 9L61 9L61 8ZM2 9L2 11L3 11L3 9ZM65 9L65 10L66 10L66 11L67 11L67 10L66 10L66 9ZM12 10L12 11L14 11L14 13L13 13L13 14L12 14L12 12L10 12L10 15L11 15L11 14L12 14L12 15L15 15L15 14L16 14L16 13L15 13L15 10ZM28 11L28 12L26 12L26 13L28 13L28 15L29 15L29 13L28 13L28 12L29 12L29 11ZM31 12L31 13L30 13L30 14L31 14L31 13L32 13L32 12ZM33 12L33 14L34 14L34 12ZM55 12L55 13L58 13L58 12ZM6 13L6 14L7 14L7 13ZM18 13L18 14L19 14L19 16L20 16L20 17L19 17L19 18L18 18L18 19L17 19L17 17L18 17L18 16L17 16L17 17L15 17L15 19L11 19L11 18L10 18L10 19L9 19L9 23L12 23L12 24L13 24L13 25L16 25L16 26L15 26L15 27L12 27L12 26L11 26L11 25L10 25L10 26L11 26L11 27L10 27L10 28L11 28L11 29L12 29L12 28L13 28L13 30L14 30L14 28L15 28L15 27L16 27L16 28L17 28L17 27L18 27L18 26L19 26L19 25L18 25L18 26L17 26L17 24L19 24L19 22L20 22L20 23L21 23L21 24L22 24L22 25L20 25L20 26L21 26L21 27L22 27L22 28L21 28L21 29L20 29L20 30L19 30L19 29L15 29L15 30L16 30L16 32L18 32L18 33L23 33L23 31L22 31L22 29L23 29L23 27L24 27L24 29L25 29L25 31L26 31L26 32L24 32L24 33L26 33L26 34L25 34L25 35L26 35L26 37L27 37L27 38L24 38L24 39L26 39L26 41L27 41L27 43L28 43L28 44L26 44L26 45L25 45L25 44L24 44L24 43L22 43L22 45L20 45L20 43L19 43L19 45L16 45L16 46L15 46L15 45L13 45L13 48L14 48L14 49L15 49L15 50L16 50L16 51L14 51L14 52L13 52L13 53L15 53L15 52L18 52L18 51L19 51L19 52L21 52L21 53L18 53L18 54L21 54L21 53L25 53L25 54L24 54L24 55L25 55L25 54L26 54L26 53L25 53L25 51L23 51L23 50L22 50L22 49L25 49L25 48L26 48L26 47L25 47L25 46L26 46L26 45L27 45L27 46L28 46L28 49L29 49L29 47L30 47L30 46L32 46L32 47L35 47L35 48L32 48L32 49L33 49L33 50L31 50L31 49L30 49L30 51L34 51L34 49L35 49L35 50L36 50L36 51L37 51L37 50L36 50L36 49L35 49L35 48L36 48L36 47L35 47L35 46L34 46L34 45L35 45L35 44L34 44L34 43L35 43L35 42L36 42L36 43L37 43L37 44L36 44L36 45L37 45L37 46L39 46L39 45L40 45L40 47L41 47L41 46L42 46L42 45L43 45L43 44L42 44L42 43L43 43L43 42L42 42L42 43L41 43L41 40L42 40L42 39L43 39L43 40L44 40L44 39L43 39L43 38L42 38L42 39L41 39L41 36L42 36L42 35L43 35L43 34L42 34L42 31L41 31L41 30L42 30L42 29L43 29L43 28L42 28L42 27L43 27L43 26L42 26L42 27L41 27L41 28L40 28L40 26L41 26L41 24L42 24L42 23L43 23L43 22L44 22L44 23L46 23L46 22L47 22L47 24L46 24L46 25L45 25L45 24L44 24L44 25L45 25L45 26L44 26L44 27L45 27L45 26L48 26L48 25L47 25L47 24L49 24L49 25L50 25L50 26L51 26L51 24L52 24L52 23L50 23L50 24L49 24L49 23L48 23L48 22L47 22L47 20L46 20L46 21L45 21L45 20L44 20L44 19L46 19L46 18L47 18L47 19L48 19L48 20L50 20L50 22L51 22L51 21L53 21L53 20L55 20L55 21L57 21L57 20L55 20L55 19L56 19L56 17L57 17L57 16L56 16L56 15L58 15L58 14L54 14L54 15L53 15L53 16L52 16L52 15L51 15L51 16L50 16L50 17L48 17L48 18L47 18L47 17L45 17L45 16L44 16L44 17L43 17L43 18L42 18L42 17L41 17L41 18L42 18L42 19L41 19L41 20L40 20L40 19L38 19L38 20L39 20L39 21L38 21L38 22L37 22L37 21L36 21L36 22L35 22L35 21L34 21L34 20L37 20L37 19L31 19L31 21L30 21L30 23L29 23L29 21L27 21L27 20L28 20L28 19L27 19L27 20L26 20L26 19L25 19L25 20L24 20L24 21L23 21L23 20L21 20L21 19L23 19L23 18L21 18L21 17L23 17L23 16L24 16L24 17L25 17L25 18L28 18L28 17L29 17L29 16L28 16L28 17L25 17L25 16L26 16L26 15L25 15L25 16L24 16L24 15L21 15L21 14L22 14L22 13ZM49 14L49 15L48 15L48 16L49 16L49 15L50 15L50 14ZM20 15L20 16L21 16L21 15ZM30 15L30 16L31 16L31 17L30 17L30 18L33 18L33 17L32 17L32 16L34 16L34 17L35 17L35 16L36 16L36 15L35 15L35 16L34 16L34 15L32 15L32 16L31 16L31 15ZM54 15L54 17L53 17L53 18L55 18L55 17L56 17L56 16L55 16L55 15ZM62 15L62 18L60 18L60 19L62 19L62 18L63 18L63 16L64 16L64 15ZM36 17L36 18L37 18L37 17ZM38 17L38 18L39 18L39 17ZM51 17L51 18L49 18L49 19L52 19L52 20L53 20L53 19L52 19L52 17ZM19 18L19 19L20 19L20 18ZM66 18L66 19L67 19L67 18ZM15 19L15 20L17 20L17 19ZM29 19L29 20L30 20L30 19ZM42 19L42 20L41 20L41 23L39 23L39 22L40 22L40 21L39 21L39 22L38 22L38 24L37 24L37 22L36 22L36 24L34 24L34 25L33 25L33 26L35 26L35 27L36 27L36 26L37 26L37 28L38 28L38 29L40 29L40 28L38 28L38 27L39 27L39 26L40 26L40 25L39 25L39 26L38 26L38 24L41 24L41 23L42 23L42 22L43 22L43 21L44 21L44 22L45 22L45 21L44 21L44 20L43 20L43 19ZM12 20L12 23L13 23L13 22L14 22L14 23L15 23L15 24L17 24L17 23L18 23L18 21L21 21L21 23L22 23L22 22L23 22L23 23L24 23L24 25L23 25L23 26L24 26L24 25L25 25L25 26L26 26L26 28L25 28L25 29L26 29L26 30L27 30L27 31L29 31L29 30L30 30L30 29L32 29L32 28L30 28L30 27L32 27L32 26L31 26L31 25L32 25L32 23L33 23L33 20L32 20L32 22L31 22L31 25L30 25L30 24L29 24L29 23L28 23L28 22L27 22L27 21L26 21L26 20L25 20L25 21L24 21L24 22L23 22L23 21L21 21L21 20L18 20L18 21L17 21L17 22L15 22L15 21L14 21L14 20ZM62 20L62 22L63 22L63 21L64 21L64 22L65 22L65 23L67 23L67 22L68 22L68 21L67 21L67 20L66 20L66 21L67 21L67 22L65 22L65 20ZM25 21L25 24L26 24L26 25L27 25L27 27L28 27L28 28L26 28L26 29L28 29L28 30L29 30L29 29L28 29L28 28L29 28L29 27L30 27L30 25L28 25L28 23L27 23L27 24L26 24L26 21ZM35 25L35 26L36 26L36 25ZM28 26L28 27L29 27L29 26ZM5 27L5 28L7 28L7 27ZM11 27L11 28L12 28L12 27ZM19 27L19 28L20 28L20 27ZM48 27L48 28L49 28L49 29L50 29L50 28L49 28L49 27ZM67 27L67 28L66 28L66 29L67 29L67 30L68 30L68 29L67 29L67 28L68 28L68 27ZM34 28L34 29L33 29L33 30L31 30L31 31L30 31L30 32L29 32L29 36L28 36L28 35L27 35L27 37L31 37L31 38L30 38L30 39L29 39L29 40L28 40L28 39L27 39L27 40L28 40L28 41L29 41L29 42L28 42L28 43L29 43L29 44L28 44L28 45L29 45L29 46L30 46L30 45L31 45L31 44L32 44L32 43L33 43L33 40L34 40L34 38L33 38L33 37L35 37L35 39L36 39L36 40L35 40L35 41L34 41L34 42L35 42L35 41L37 41L37 43L39 43L39 44L37 44L37 45L39 45L39 44L41 44L41 43L39 43L39 42L40 42L40 41L39 41L39 40L41 40L41 39L40 39L40 38L38 38L38 37L37 37L37 36L38 36L38 35L39 35L39 36L41 36L41 35L42 35L42 34L41 34L41 35L40 35L40 34L37 34L37 33L38 33L38 32L36 32L36 31L39 31L39 32L41 32L41 31L40 31L40 30L35 30L35 32L34 32L34 31L33 31L33 30L34 30L34 29L36 29L36 28ZM41 28L41 29L42 29L42 28ZM8 30L8 31L9 31L9 30ZM17 30L17 31L18 31L18 30ZM20 30L20 32L22 32L22 31L21 31L21 30ZM58 30L58 31L59 31L59 30ZM32 31L32 32L31 32L31 33L30 33L30 34L31 34L31 35L30 35L30 36L31 36L31 35L32 35L32 34L31 34L31 33L32 33L32 32L33 32L33 31ZM56 31L56 32L57 32L57 31ZM12 32L12 34L13 34L13 32ZM65 32L65 34L66 34L66 33L67 33L67 34L68 34L68 33L67 33L67 32ZM5 33L5 36L8 36L8 33ZM27 33L27 34L28 34L28 33ZM33 33L33 36L36 36L36 33ZM61 33L61 36L64 36L64 33ZM0 34L0 37L1 37L1 34ZM6 34L6 35L7 35L7 34ZM19 34L19 35L20 35L20 34ZM21 34L21 37L20 37L20 36L19 36L19 37L18 37L18 38L17 38L17 37L16 37L16 39L14 39L14 40L16 40L16 41L17 41L17 43L18 43L18 42L19 42L19 41L20 41L20 42L21 42L21 41L22 41L22 42L24 42L24 41L22 41L22 40L21 40L21 39L22 39L22 37L25 37L25 36L24 36L24 35L23 35L23 34ZM34 34L34 35L35 35L35 34ZM58 34L58 36L57 36L57 37L59 37L59 34ZM62 34L62 35L63 35L63 34ZM44 36L44 37L45 37L45 36ZM19 37L19 38L20 38L20 39L21 39L21 38L20 38L20 37ZM5 38L5 39L4 39L4 40L6 40L6 41L7 41L7 40L6 40L6 39L7 39L7 38ZM31 38L31 41L32 41L32 40L33 40L33 39L32 39L32 38ZM36 38L36 39L38 39L38 40L37 40L37 41L38 41L38 42L39 42L39 41L38 41L38 40L39 40L39 39L38 39L38 38ZM47 38L47 39L48 39L48 38ZM16 39L16 40L17 40L17 41L19 41L19 40L17 40L17 39ZM58 39L58 40L59 40L59 39ZM20 40L20 41L21 41L21 40ZM29 40L29 41L30 41L30 40ZM51 40L51 41L52 41L52 42L51 42L51 45L50 45L50 46L52 46L52 47L48 47L48 48L47 48L47 47L46 47L46 48L44 48L44 49L43 49L43 50L42 50L42 51L41 51L41 52L43 52L43 53L44 53L44 54L42 54L42 55L41 55L41 56L42 56L42 55L43 55L43 56L44 56L44 58L41 58L41 59L45 59L45 58L47 58L47 55L48 55L48 56L49 56L49 55L48 55L48 54L47 54L47 53L45 53L45 52L47 52L47 51L48 51L48 52L50 52L50 54L53 54L53 52L54 52L54 53L55 53L55 54L54 54L54 55L53 55L53 56L51 56L51 55L50 55L50 56L51 56L51 57L50 57L50 58L51 58L51 57L52 57L52 58L53 58L53 56L54 56L54 57L55 57L55 56L56 56L56 54L57 54L57 55L58 55L58 54L57 54L57 52L56 52L56 50L57 50L57 49L58 49L58 50L60 50L60 51L61 51L61 52L62 52L62 51L63 51L63 50L62 50L62 49L63 49L63 48L62 48L62 47L61 47L61 46L59 46L59 45L61 45L61 44L62 44L62 43L61 43L61 42L59 42L59 41L58 41L58 42L56 42L56 41L57 41L57 40L56 40L56 41L55 41L55 42L54 42L54 43L53 43L53 44L52 44L52 42L53 42L53 40ZM0 42L0 43L1 43L1 42ZM6 42L6 43L7 43L7 44L8 44L8 43L7 43L7 42ZM25 42L25 43L26 43L26 42ZM29 42L29 43L30 43L30 44L31 44L31 43L32 43L32 42L31 42L31 43L30 43L30 42ZM55 42L55 43L54 43L54 44L53 44L53 47L52 47L52 48L54 48L54 49L52 49L52 50L55 50L55 49L56 49L56 48L58 48L58 49L59 49L59 48L61 48L61 49L60 49L60 50L61 50L61 51L62 51L62 50L61 50L61 49L62 49L62 48L61 48L61 47L59 47L59 46L58 46L58 45L59 45L59 44L61 44L61 43L59 43L59 42L58 42L58 43L59 43L59 44L57 44L57 43L56 43L56 42ZM4 44L4 45L5 45L5 44ZM23 44L23 45L22 45L22 46L21 46L21 47L20 47L20 45L19 45L19 46L18 46L18 47L17 47L17 46L16 46L16 47L17 47L17 48L15 48L15 49L17 49L17 50L19 50L19 51L20 51L20 50L19 50L19 49L20 49L20 48L21 48L21 49L22 49L22 47L23 47L23 45L24 45L24 46L25 46L25 45L24 45L24 44ZM54 44L54 45L57 45L57 44ZM32 45L32 46L33 46L33 45ZM2 46L2 47L3 47L3 46ZM14 46L14 47L15 47L15 46ZM54 46L54 48L56 48L56 47L58 47L58 48L59 48L59 47L58 47L58 46ZM65 46L65 47L66 47L66 46ZM19 47L19 48L20 48L20 47ZM4 48L4 49L7 49L7 50L8 50L8 49L7 49L7 48ZM17 48L17 49L18 49L18 48ZM48 48L48 51L51 51L51 50L49 50L49 48ZM9 49L9 51L7 51L7 52L9 52L9 51L10 51L10 49ZM11 49L11 50L12 50L12 49ZM21 50L21 51L22 51L22 52L23 52L23 51L22 51L22 50ZM43 50L43 52L45 52L45 51L44 51L44 50ZM46 50L46 51L47 51L47 50ZM4 51L4 52L5 52L5 51ZM52 51L52 52L51 52L51 53L52 53L52 52L53 52L53 51ZM54 51L54 52L55 52L55 53L56 53L56 52L55 52L55 51ZM11 52L11 53L12 53L12 52ZM31 52L31 53L30 53L30 55L29 55L29 56L30 56L30 57L31 57L31 56L32 56L32 54L31 54L31 53L32 53L32 52ZM33 52L33 53L34 53L34 52ZM63 53L63 54L64 54L64 53ZM45 54L45 55L44 55L44 56L45 56L45 57L46 57L46 56L45 56L45 55L47 55L47 54ZM65 54L65 55L66 55L66 54ZM14 55L14 56L11 56L11 58L13 58L13 59L12 59L12 61L11 61L11 62L12 62L12 61L13 61L13 62L14 62L14 61L13 61L13 60L14 60L14 59L15 59L15 60L16 60L16 61L21 61L21 60L16 60L16 59L15 59L15 58L16 58L16 57L15 57L15 55ZM18 55L18 56L19 56L19 57L20 57L20 55ZM54 55L54 56L55 56L55 55ZM13 57L13 58L15 58L15 57ZM34 57L34 58L35 58L35 57ZM17 58L17 59L18 59L18 58ZM31 58L31 59L32 59L32 58ZM54 58L54 59L53 59L53 60L54 60L54 59L56 59L56 58ZM22 59L22 60L24 60L24 59ZM3 60L3 61L5 61L5 60ZM65 60L65 62L66 62L66 61L67 61L67 62L68 62L68 61L67 61L67 60ZM33 61L33 64L36 64L36 61ZM61 61L61 64L64 64L64 61ZM16 62L16 63L18 63L18 62ZM20 62L20 64L21 64L21 65L22 65L22 64L21 64L21 62ZM34 62L34 63L35 63L35 62ZM54 62L54 63L53 63L53 64L54 64L54 65L55 65L55 66L56 66L56 65L57 65L57 64L56 64L56 65L55 65L55 64L54 64L54 63L55 63L55 62ZM62 62L62 63L63 63L63 62ZM10 64L10 67L12 67L12 68L13 68L13 64L12 64L12 66L11 66L11 64ZM27 65L27 66L28 66L28 65ZM36 65L36 66L37 66L37 65ZM48 65L48 66L47 66L47 67L48 67L48 66L49 66L49 65ZM63 65L63 66L64 66L64 65ZM16 66L16 67L17 67L17 66ZM41 66L41 67L42 67L42 66ZM0 0L0 7L7 7L7 0ZM1 1L1 6L6 6L6 1ZM2 2L2 5L5 5L5 2ZM62 0L62 7L69 7L69 0ZM63 1L63 6L68 6L68 1ZM64 2L64 5L67 5L67 2ZM0 62L0 69L7 69L7 62ZM1 63L1 68L6 68L6 63ZM2 64L2 67L5 67L5 64Z" fill="#000000"/></g></g></svg>
