<?xml version="1.0" encoding="UTF-8"?>
<svg xmlns="http://www.w3.org/2000/svg" version="1.1" width="300" height="300" viewBox="0 0 300 300"><rect x="0" y="0" width="300" height="300" fill="#ffffff"/><g transform="scale(4.348)"><g transform="translate(0,0)"><path fill-rule="evenodd" d="M10 0L10 3L8 3L8 4L9 4L9 5L8 5L8 7L9 7L9 8L6 8L6 9L5 9L5 8L0 8L0 9L1 9L1 10L2 10L2 11L3 11L3 12L5 12L5 11L7 11L7 12L6 12L6 13L8 13L8 12L9 12L9 13L10 13L10 14L9 14L9 15L8 15L8 14L6 14L6 15L5 15L5 16L4 16L4 15L3 15L3 16L2 16L2 14L3 14L3 13L2 13L2 12L1 12L1 11L0 11L0 14L1 14L1 16L2 16L2 17L3 17L3 18L2 18L2 20L5 20L5 19L3 19L3 18L4 18L4 17L5 17L5 18L6 18L6 19L7 19L7 18L6 18L6 17L7 17L7 16L6 16L6 15L8 15L8 17L9 17L9 19L8 19L8 22L9 22L9 21L10 21L10 24L11 24L11 22L13 22L13 20L14 20L14 21L15 21L15 18L16 18L16 21L17 21L17 23L16 23L16 22L15 22L15 23L12 23L12 24L17 24L17 26L18 26L18 27L17 27L17 28L16 28L16 27L15 27L15 26L16 26L16 25L15 25L15 26L14 26L14 25L13 25L13 26L14 26L14 28L16 28L16 29L15 29L15 30L14 30L14 29L13 29L13 30L12 30L12 28L13 28L13 27L12 27L12 28L11 28L11 27L9 27L9 28L11 28L11 30L9 30L9 29L8 29L8 26L12 26L12 25L7 25L7 24L8 24L8 23L7 23L7 22L6 22L6 21L7 21L7 20L6 20L6 21L5 21L5 22L3 22L3 21L2 21L2 22L1 22L1 21L0 21L0 22L1 22L1 23L4 23L4 24L6 24L6 25L5 25L5 26L4 26L4 25L3 25L3 24L2 24L2 25L3 25L3 27L5 27L5 29L4 29L4 28L2 28L2 27L0 27L0 31L1 31L1 30L2 30L2 33L1 33L1 34L0 34L0 35L1 35L1 36L0 36L0 37L1 37L1 36L3 36L3 35L4 35L4 37L3 37L3 38L2 38L2 39L0 39L0 40L1 40L1 41L2 41L2 43L1 43L1 42L0 42L0 45L1 45L1 46L0 46L0 47L1 47L1 48L0 48L0 50L1 50L1 52L3 52L3 53L4 53L4 54L6 54L6 55L4 55L4 56L3 56L3 54L2 54L2 53L0 53L0 54L2 54L2 55L0 55L0 56L3 56L3 57L5 57L5 56L6 56L6 57L8 57L8 56L10 56L10 58L9 58L9 59L8 59L8 58L4 58L4 59L7 59L7 60L6 60L6 61L7 61L7 60L9 60L9 61L8 61L8 63L10 63L10 61L11 61L11 63L13 63L13 64L11 64L11 65L12 65L12 66L11 66L11 67L9 67L9 65L10 65L10 64L8 64L8 69L10 69L10 68L11 68L11 69L12 69L12 68L11 68L11 67L12 67L12 66L13 66L13 68L16 68L16 69L19 69L19 68L20 68L20 69L21 69L21 67L22 67L22 68L23 68L23 69L24 69L24 68L25 68L25 69L26 69L26 67L27 67L27 69L31 69L31 68L34 68L34 69L36 69L36 68L38 68L38 69L39 69L39 68L41 68L41 69L42 69L42 68L43 68L43 69L44 69L44 68L45 68L45 69L50 69L50 68L48 68L48 67L49 67L49 66L50 66L50 67L52 67L52 68L53 68L53 66L55 66L55 68L54 68L54 69L56 69L56 68L59 68L59 67L60 67L60 68L62 68L62 69L66 69L66 68L67 68L67 69L68 69L68 68L67 68L67 65L68 65L68 64L67 64L67 63L68 63L68 62L69 62L69 59L68 59L68 60L67 60L67 58L69 58L69 57L67 57L67 58L66 58L66 56L67 56L67 55L66 55L66 54L69 54L69 53L66 53L66 54L65 54L65 55L66 55L66 56L64 56L64 57L63 57L63 58L64 58L64 57L65 57L65 60L63 60L63 59L62 59L62 57L59 57L59 56L60 56L60 55L59 55L59 54L58 54L58 55L56 55L56 52L57 52L57 51L59 51L59 52L58 52L58 53L59 53L59 52L60 52L60 53L61 53L61 55L62 55L62 56L63 56L63 55L62 55L62 54L64 54L64 53L65 53L65 52L68 52L68 50L69 50L69 48L68 48L68 49L67 49L67 51L65 51L65 50L64 50L64 51L65 51L65 52L64 52L64 53L62 53L62 52L63 52L63 51L62 51L62 50L61 50L61 48L60 48L60 47L59 47L59 46L57 46L57 45L58 45L58 44L57 44L57 42L58 42L58 43L59 43L59 44L60 44L60 45L61 45L61 47L62 47L62 49L66 49L66 48L67 48L67 47L66 47L66 46L69 46L69 45L66 45L66 46L65 46L65 47L66 47L66 48L64 48L64 46L63 46L63 47L62 47L62 44L63 44L63 43L65 43L65 44L64 44L64 45L65 45L65 44L67 44L67 43L68 43L68 44L69 44L69 43L68 43L68 42L69 42L69 41L68 41L68 42L67 42L67 41L66 41L66 40L69 40L69 39L68 39L68 38L69 38L69 36L68 36L68 34L69 34L69 33L68 33L68 32L69 32L69 31L64 31L64 32L62 32L62 31L63 31L63 30L65 30L65 29L63 29L63 28L62 28L62 27L63 27L63 26L61 26L61 25L60 25L60 24L58 24L58 25L59 25L59 26L58 26L58 27L53 27L53 26L55 26L55 25L53 25L53 26L52 26L52 24L53 24L53 23L54 23L54 24L57 24L57 23L54 23L54 22L56 22L56 21L55 21L55 20L57 20L57 21L59 21L59 22L58 22L58 23L59 23L59 22L61 22L61 23L62 23L62 25L63 25L63 24L65 24L65 25L64 25L64 26L65 26L65 25L66 25L66 24L67 24L67 23L68 23L68 24L69 24L69 23L68 23L68 22L69 22L69 20L67 20L67 19L68 19L68 18L69 18L69 16L68 16L68 18L67 18L67 17L66 17L66 18L65 18L65 19L64 19L64 16L67 16L67 15L68 15L68 14L69 14L69 13L68 13L68 12L69 12L69 11L68 11L68 10L69 10L69 9L68 9L68 8L67 8L67 10L66 10L66 8L65 8L65 9L64 9L64 8L63 8L63 9L64 9L64 10L66 10L66 11L64 11L64 12L63 12L63 14L62 14L62 11L63 11L63 10L62 10L62 8L61 8L61 6L60 6L60 8L58 8L58 7L59 7L59 4L58 4L58 5L56 5L56 3L59 3L59 2L56 2L56 0L54 0L54 1L53 1L53 0L51 0L51 1L50 1L50 0L48 0L48 2L47 2L47 1L46 1L46 2L47 2L47 5L45 5L45 6L44 6L44 5L43 5L43 4L44 4L44 3L45 3L45 1L44 1L44 0L41 0L41 2L40 2L40 1L38 1L38 0L37 0L37 1L36 1L36 0L35 0L35 1L36 1L36 2L37 2L37 1L38 1L38 4L35 4L35 3L34 3L34 1L33 1L33 2L32 2L32 0L31 0L31 1L29 1L29 2L32 2L32 3L30 3L30 4L29 4L29 3L28 3L28 2L26 2L26 0L24 0L24 3L23 3L23 4L22 4L22 7L21 7L21 5L20 5L20 4L21 4L21 3L22 3L22 2L23 2L23 0L22 0L22 1L21 1L21 0L18 0L18 3L16 3L16 2L17 2L17 0L16 0L16 1L15 1L15 0L14 0L14 1L15 1L15 3L16 3L16 4L15 4L15 5L12 5L12 7L11 7L11 6L10 6L10 5L11 5L11 4L12 4L12 2L13 2L13 0L12 0L12 1L11 1L11 0ZM27 0L27 1L28 1L28 0ZM57 0L57 1L61 1L61 0ZM8 1L8 2L9 2L9 1ZM19 1L19 2L20 2L20 1ZM42 1L42 2L41 2L41 3L40 3L40 2L39 2L39 3L40 3L40 4L38 4L38 5L40 5L40 6L39 6L39 7L40 7L40 6L41 6L41 8L38 8L38 6L37 6L37 10L39 10L39 11L37 11L37 13L36 13L36 12L35 12L35 11L36 11L36 10L35 10L35 9L34 9L34 11L33 11L33 10L32 10L32 9L31 9L31 10L29 10L29 9L30 9L30 8L29 8L29 9L28 9L28 8L26 8L26 5L25 5L25 7L24 7L24 5L23 5L23 8L26 8L26 9L25 9L25 10L26 10L26 13L27 13L27 14L29 14L29 13L28 13L28 12L29 12L29 11L33 11L33 14L34 14L34 12L35 12L35 13L36 13L36 14L35 14L35 15L36 15L36 14L37 14L37 16L36 16L36 18L37 18L37 16L38 16L38 14L39 14L39 17L38 17L38 18L39 18L39 17L42 17L42 16L40 16L40 15L43 15L43 16L44 16L44 17L43 17L43 18L41 18L41 20L40 20L40 19L39 19L39 20L38 20L38 19L35 19L35 16L34 16L34 15L32 15L32 18L33 18L33 19L30 19L30 18L31 18L31 17L30 17L30 18L29 18L29 19L30 19L30 20L31 20L31 21L30 21L30 23L29 23L29 21L27 21L27 20L28 20L28 19L27 19L27 18L28 18L28 17L29 17L29 16L28 16L28 17L25 17L25 16L26 16L26 15L25 15L25 14L24 14L24 13L25 13L25 12L24 12L24 11L23 11L23 10L24 10L24 9L22 9L22 8L21 8L21 9L20 9L20 8L19 8L19 9L17 9L17 7L18 7L18 5L19 5L19 7L20 7L20 5L19 5L19 4L18 4L18 5L17 5L17 7L16 7L16 5L15 5L15 7L14 7L14 6L13 6L13 8L11 8L11 7L10 7L10 6L9 6L9 7L10 7L10 8L9 8L9 10L10 10L10 11L9 11L9 12L10 12L10 13L13 13L13 14L12 14L12 15L10 15L10 18L15 18L15 17L14 17L14 16L17 16L17 17L18 17L18 16L17 16L17 15L18 15L18 14L19 14L19 15L20 15L20 17L19 17L19 18L20 18L20 19L19 19L19 21L18 21L18 23L17 23L17 24L19 24L19 23L20 23L20 24L22 24L22 25L20 25L20 26L21 26L21 27L24 27L24 29L25 29L25 28L26 28L26 29L27 29L27 30L24 30L24 31L26 31L26 32L24 32L24 33L26 33L26 34L25 34L25 36L24 36L24 35L23 35L23 34L22 34L22 35L23 35L23 36L21 36L21 37L18 37L18 38L17 38L17 37L16 37L16 35L15 35L15 34L17 34L17 36L19 36L19 35L20 35L20 34L18 34L18 33L23 33L23 31L22 31L22 30L21 30L21 29L23 29L23 28L21 28L21 29L18 29L18 28L17 28L17 29L16 29L16 30L15 30L15 31L16 31L16 32L18 32L18 33L13 33L13 32L14 32L14 30L13 30L13 31L12 31L12 30L11 30L11 31L12 31L12 34L10 34L10 33L11 33L11 32L10 32L10 33L9 33L9 34L10 34L10 35L9 35L9 36L10 36L10 38L9 38L9 37L5 37L5 39L4 39L4 38L3 38L3 40L5 40L5 39L6 39L6 40L7 40L7 39L9 39L9 40L11 40L11 38L12 38L12 37L14 37L14 38L13 38L13 40L14 40L14 39L16 39L16 41L14 41L14 42L13 42L13 41L11 41L11 42L8 42L8 41L6 41L6 42L8 42L8 43L14 43L14 42L16 42L16 41L17 41L17 44L20 44L20 43L18 43L18 42L19 42L19 41L20 41L20 42L21 42L21 43L22 43L22 42L24 42L24 41L22 41L22 40L21 40L21 41L20 41L20 40L19 40L19 39L22 39L22 37L23 37L23 36L24 36L24 37L25 37L25 38L24 38L24 39L23 39L23 40L24 40L24 39L26 39L26 41L27 41L27 42L26 42L26 43L25 43L25 44L24 44L24 43L23 43L23 44L22 44L22 45L16 45L16 43L15 43L15 44L12 44L12 45L10 45L10 44L7 44L7 43L5 43L5 44L7 44L7 45L2 45L2 46L4 46L4 47L2 47L2 49L1 49L1 50L2 50L2 51L4 51L4 49L3 49L3 48L4 48L4 47L5 47L5 46L7 46L7 45L10 45L10 46L9 46L9 47L10 47L10 46L14 46L14 47L15 47L15 46L17 46L17 47L16 47L16 48L17 48L17 49L15 49L15 48L13 48L13 50L12 50L12 49L11 49L11 50L12 50L12 51L11 51L11 52L10 52L10 48L9 48L9 51L8 51L8 50L7 50L7 49L5 49L5 52L4 52L4 53L5 53L5 52L7 52L7 51L8 51L8 52L10 52L10 54L9 54L9 53L8 53L8 54L7 54L7 53L6 53L6 54L7 54L7 55L6 55L6 56L7 56L7 55L10 55L10 56L11 56L11 59L9 59L9 60L11 60L11 61L12 61L12 62L13 62L13 60L14 60L14 59L16 59L16 60L15 60L15 62L14 62L14 63L15 63L15 62L17 62L17 61L18 61L18 63L16 63L16 64L18 64L18 65L15 65L15 64L14 64L14 67L16 67L16 68L19 68L19 67L20 67L20 66L18 66L18 65L21 65L21 66L22 66L22 67L23 67L23 68L24 68L24 67L25 67L25 66L22 66L22 65L23 65L23 64L24 64L24 65L26 65L26 66L27 66L27 67L28 67L28 68L31 68L31 67L33 67L33 66L36 66L36 67L34 67L34 68L36 68L36 67L37 67L37 66L36 66L36 65L32 65L32 62L31 62L31 61L32 61L32 60L33 60L33 59L35 59L35 58L36 58L36 59L37 59L37 61L38 61L38 62L40 62L40 63L37 63L37 65L38 65L38 66L39 66L39 67L41 67L41 68L42 68L42 67L43 67L43 66L42 66L42 67L41 67L41 64L42 64L42 65L43 65L43 64L44 64L44 66L45 66L45 68L47 68L47 67L48 67L48 66L49 66L49 65L48 65L48 66L47 66L47 63L46 63L46 62L49 62L49 61L50 61L50 62L52 62L52 63L50 63L50 66L51 66L51 65L52 65L52 66L53 66L53 64L54 64L54 65L55 65L55 66L56 66L56 67L57 67L57 66L59 66L59 65L60 65L60 66L61 66L61 67L62 67L62 68L65 68L65 66L66 66L66 65L67 65L67 64L66 64L66 65L65 65L65 66L64 66L64 65L63 65L63 66L64 66L64 67L62 67L62 65L60 65L60 64L59 64L59 65L57 65L57 64L58 64L58 62L60 62L60 60L62 60L62 59L60 59L60 60L59 60L59 59L58 59L58 58L59 58L59 57L58 57L58 56L59 56L59 55L58 55L58 56L56 56L56 59L57 59L57 60L56 60L56 63L57 63L57 64L56 64L56 65L55 65L55 64L54 64L54 63L55 63L55 62L54 62L54 63L53 63L53 60L54 60L54 59L55 59L55 58L54 58L54 57L53 57L53 56L51 56L51 55L50 55L50 56L51 56L51 57L50 57L50 58L51 58L51 59L49 59L49 58L48 58L48 56L49 56L49 55L48 55L48 54L47 54L47 51L48 51L48 52L50 52L50 54L51 54L51 53L52 53L52 55L53 55L53 54L54 54L54 56L55 56L55 54L54 54L54 53L55 53L55 52L51 52L51 51L48 51L48 48L49 48L49 50L51 50L51 49L52 49L52 51L56 51L56 50L60 50L60 51L61 51L61 52L62 52L62 51L61 51L61 50L60 50L60 48L59 48L59 49L57 49L57 48L56 48L56 47L57 47L57 46L56 46L56 47L55 47L55 46L54 46L54 48L51 48L51 47L50 47L50 48L49 48L49 47L48 47L48 48L47 48L47 47L46 47L46 46L47 46L47 44L49 44L49 45L48 45L48 46L49 46L49 45L50 45L50 46L52 46L52 47L53 47L53 44L54 44L54 45L57 45L57 44L54 44L54 43L56 43L56 42L57 42L57 40L56 40L56 42L53 42L53 40L54 40L54 41L55 41L55 39L58 39L58 40L59 40L59 41L58 41L58 42L60 42L60 44L62 44L62 43L63 43L63 42L65 42L65 41L63 41L63 40L62 40L62 41L61 41L61 39L60 39L60 34L59 34L59 32L60 32L60 31L62 31L62 30L63 30L63 29L62 29L62 28L61 28L61 26L59 26L59 28L60 28L60 29L62 29L62 30L60 30L60 31L58 31L58 30L59 30L59 29L58 29L58 30L56 30L56 29L57 29L57 28L54 28L54 29L55 29L55 30L54 30L54 31L55 31L55 32L54 32L54 33L55 33L55 32L56 32L56 35L57 35L57 36L56 36L56 37L57 37L57 36L59 36L59 37L58 37L58 38L53 38L53 37L55 37L55 36L51 36L51 35L55 35L55 34L53 34L53 32L50 32L50 31L48 31L48 30L47 30L47 27L48 27L48 28L49 28L49 29L50 29L50 30L52 30L52 31L53 31L53 28L52 28L52 26L51 26L51 24L52 24L52 23L53 23L53 22L52 22L52 21L54 21L54 20L55 20L55 19L56 19L56 17L57 17L57 16L56 16L56 15L57 15L57 14L59 14L59 13L61 13L61 12L60 12L60 10L59 10L59 9L57 9L57 8L56 8L56 9L55 9L55 8L54 8L54 6L55 6L55 7L56 7L56 5L53 5L53 8L52 8L52 6L51 6L51 7L50 7L50 6L49 6L49 7L48 7L48 5L47 5L47 7L48 7L48 8L49 8L49 9L48 9L48 10L49 10L49 9L50 9L50 10L51 10L51 12L50 12L50 13L49 13L49 14L52 14L52 15L51 15L51 16L52 16L52 18L53 18L53 19L54 19L54 20L51 20L51 19L49 19L49 17L50 17L50 18L51 18L51 17L50 17L50 15L48 15L48 16L49 16L49 17L48 17L48 18L47 18L47 17L45 17L45 16L47 16L47 15L46 15L46 14L48 14L48 12L49 12L49 11L48 11L48 12L47 12L47 11L46 11L46 10L47 10L47 8L44 8L44 10L42 10L42 11L46 11L46 12L44 12L44 14L39 14L39 13L42 13L42 12L40 12L40 11L41 11L41 10L39 10L39 9L41 9L41 8L42 8L42 6L43 6L43 7L44 7L44 6L43 6L43 5L42 5L42 6L41 6L41 3L42 3L42 2L43 2L43 3L44 3L44 2L43 2L43 1ZM49 1L49 2L48 2L48 3L50 3L50 5L52 5L52 4L53 4L53 3L54 3L54 4L55 4L55 3L54 3L54 2L55 2L55 1L54 1L54 2L53 2L53 1L52 1L52 2L53 2L53 3L51 3L51 2L50 2L50 1ZM25 2L25 3L24 3L24 4L28 4L28 5L27 5L27 7L28 7L28 5L29 5L29 7L30 7L30 5L31 5L31 8L32 8L32 5L31 5L31 4L30 4L30 5L29 5L29 4L28 4L28 3L26 3L26 2ZM10 3L10 4L11 4L11 3ZM13 3L13 4L14 4L14 3ZM33 3L33 4L34 4L34 3ZM60 3L60 5L61 5L61 3ZM33 5L33 8L36 8L36 5ZM34 6L34 7L35 7L35 6ZM45 6L45 7L46 7L46 6ZM57 6L57 7L58 7L58 6ZM15 7L15 8L14 8L14 12L13 12L13 9L11 9L11 12L13 12L13 13L14 13L14 14L13 14L13 16L11 16L11 17L13 17L13 16L14 16L14 15L15 15L15 14L17 14L17 13L21 13L21 12L19 12L19 10L20 10L20 11L21 11L21 10L22 10L22 9L21 9L21 10L20 10L20 9L19 9L19 10L17 10L17 9L15 9L15 8L16 8L16 7ZM49 7L49 8L50 8L50 7ZM53 8L53 11L52 11L52 12L53 12L53 13L54 13L54 14L53 14L53 15L52 15L52 16L53 16L53 15L54 15L54 17L53 17L53 18L55 18L55 17L56 17L56 16L55 16L55 15L54 15L54 14L57 14L57 13L56 13L56 12L57 12L57 11L56 11L56 12L55 12L55 11L54 11L54 10L55 10L55 9L54 9L54 8ZM60 8L60 9L61 9L61 8ZM2 9L2 10L4 10L4 9ZM6 9L6 10L7 10L7 11L8 11L8 10L7 10L7 9ZM26 9L26 10L27 10L27 12L28 12L28 11L29 11L29 10L27 10L27 9ZM51 9L51 10L52 10L52 9ZM15 10L15 11L16 11L16 12L18 12L18 11L17 11L17 10ZM58 10L58 12L59 12L59 10ZM61 10L61 11L62 11L62 10ZM22 11L22 12L23 12L23 13L22 13L22 14L20 14L20 15L23 15L23 13L24 13L24 12L23 12L23 11ZM53 11L53 12L54 12L54 11ZM14 12L14 13L15 13L15 12ZM31 12L31 13L30 13L30 14L31 14L31 13L32 13L32 12ZM38 12L38 13L37 13L37 14L38 14L38 13L39 13L39 12ZM64 12L64 13L65 13L65 12ZM66 12L66 14L63 14L63 15L62 15L62 14L60 14L60 15L62 15L62 18L60 18L60 19L62 19L62 22L64 22L64 23L67 23L67 22L68 22L68 21L67 21L67 20L64 20L64 19L62 19L62 18L63 18L63 16L64 16L64 15L67 15L67 12ZM1 13L1 14L2 14L2 13ZM4 13L4 14L5 14L5 13ZM24 15L24 16L23 16L23 17L21 17L21 18L23 18L23 21L22 21L22 22L20 22L20 21L21 21L21 20L22 20L22 19L21 19L21 20L20 20L20 21L19 21L19 22L20 22L20 23L22 23L22 22L23 22L23 23L25 23L25 22L26 22L26 24L24 24L24 25L23 25L23 26L24 26L24 25L25 25L25 26L27 26L27 25L26 25L26 24L28 24L28 25L30 25L30 27L29 27L29 26L28 26L28 27L26 27L26 28L28 28L28 29L29 29L29 30L30 30L30 29L32 29L32 28L30 28L30 27L32 27L32 26L31 26L31 25L32 25L32 23L33 23L33 21L35 21L35 24L34 24L34 25L36 25L36 26L35 26L35 27L36 27L36 26L37 26L37 28L38 28L38 29L40 29L40 30L41 30L41 31L39 31L39 30L35 30L35 31L38 31L38 32L34 32L34 31L33 31L33 30L34 30L34 29L36 29L36 28L34 28L34 26L33 26L33 28L34 28L34 29L33 29L33 30L32 30L32 31L30 31L30 32L29 32L29 34L30 34L30 33L31 33L31 32L32 32L32 34L31 34L31 35L29 35L29 36L28 36L28 35L26 35L26 36L25 36L25 37L26 37L26 38L27 38L27 37L29 37L29 38L30 38L30 39L27 39L27 40L28 40L28 41L29 41L29 42L28 42L28 43L26 43L26 44L25 44L25 45L24 45L24 44L23 44L23 45L22 45L22 46L21 46L21 49L22 49L22 50L23 50L23 51L22 51L22 52L23 52L23 53L21 53L21 52L20 52L20 53L19 53L19 52L16 52L16 53L17 53L17 54L16 54L16 55L14 55L14 54L13 54L13 55L12 55L12 58L14 58L14 56L16 56L16 55L17 55L17 57L19 57L19 58L17 58L17 59L19 59L19 58L20 58L20 57L22 57L22 56L21 56L21 55L22 55L22 54L23 54L23 56L24 56L24 57L23 57L23 58L24 58L24 57L25 57L25 59L26 59L26 58L27 58L27 60L28 60L28 61L26 61L26 60L25 60L25 61L22 61L22 59L21 59L21 60L18 60L18 61L22 61L22 62L24 62L24 64L26 64L26 63L25 63L25 62L28 62L28 61L29 61L29 62L30 62L30 63L31 63L31 62L30 62L30 61L31 61L31 60L32 60L32 59L33 59L33 57L32 57L32 56L33 56L33 55L34 55L34 53L36 53L36 54L35 54L35 56L36 56L36 57L37 57L37 58L38 58L38 60L39 60L39 58L44 58L44 56L46 56L46 57L47 57L47 56L48 56L48 55L47 55L47 54L46 54L46 55L44 55L44 56L43 56L43 55L42 55L42 54L45 54L45 53L46 53L46 52L45 52L45 51L44 51L44 50L45 50L45 49L42 49L42 48L46 48L46 47L42 47L42 46L45 46L45 45L44 45L44 44L46 44L46 43L51 43L51 42L52 42L52 44L53 44L53 42L52 42L52 41L51 41L51 40L53 40L53 38L52 38L52 39L51 39L51 38L50 38L50 36L48 36L48 35L49 35L49 34L50 34L50 35L51 35L51 34L52 34L52 33L51 33L51 34L50 34L50 33L49 33L49 32L47 32L47 33L49 33L49 34L46 34L46 35L44 35L44 36L43 36L43 35L42 35L42 36L41 36L41 35L40 35L40 34L37 34L37 33L38 33L38 32L43 32L43 33L41 33L41 34L43 34L43 33L44 33L44 34L45 34L45 33L44 33L44 32L46 32L46 31L47 31L47 30L46 30L46 31L42 31L42 30L44 30L44 28L46 28L46 27L47 27L47 26L45 26L45 25L46 25L46 24L45 24L45 21L43 21L43 20L46 20L46 21L47 21L47 22L46 22L46 23L47 23L47 24L48 24L48 25L49 25L49 26L48 26L48 27L51 27L51 26L50 26L50 25L49 25L49 24L50 24L50 23L52 23L52 22L50 22L50 20L48 20L48 19L47 19L47 18L46 18L46 19L45 19L45 18L44 18L44 19L42 19L42 20L41 20L41 23L40 23L40 24L39 24L39 22L40 22L40 21L39 21L39 22L38 22L38 20L32 20L32 22L31 22L31 25L30 25L30 24L29 24L29 23L28 23L28 22L27 22L27 21L24 21L24 20L26 20L26 18L25 18L25 17L24 17L24 16L25 16L25 15ZM30 15L30 16L31 16L31 15ZM44 15L44 16L45 16L45 15ZM58 15L58 18L57 18L57 20L58 20L58 18L59 18L59 15ZM5 16L5 17L6 17L6 16ZM33 16L33 17L34 17L34 16ZM60 16L60 17L61 17L61 16ZM0 17L0 19L1 19L1 17ZM17 18L17 20L18 20L18 18ZM66 18L66 19L67 19L67 18ZM10 19L10 21L11 21L11 19ZM59 20L59 21L61 21L61 20ZM36 21L36 22L37 22L37 24L38 24L38 26L39 26L39 24L38 24L38 22L37 22L37 21ZM65 21L65 22L67 22L67 21ZM5 22L5 23L6 23L6 24L7 24L7 23L6 23L6 22ZM42 22L42 23L41 23L41 24L40 24L40 25L41 25L41 24L42 24L42 23L44 23L44 22ZM47 22L47 23L48 23L48 24L49 24L49 23L48 23L48 22ZM0 24L0 26L1 26L1 24ZM44 24L44 25L45 25L45 24ZM6 25L6 26L5 26L5 27L6 27L6 28L7 28L7 27L6 27L6 26L7 26L7 25ZM18 25L18 26L19 26L19 25ZM56 25L56 26L57 26L57 25ZM68 25L68 26L66 26L66 27L64 27L64 28L67 28L67 29L66 29L66 30L69 30L69 29L68 29L68 28L69 28L69 27L68 27L68 26L69 26L69 25ZM42 26L42 27L41 27L41 28L40 28L40 27L38 27L38 28L40 28L40 29L41 29L41 28L42 28L42 29L43 29L43 28L42 28L42 27L43 27L43 26ZM44 26L44 27L45 27L45 26ZM19 27L19 28L20 28L20 27ZM28 27L28 28L29 28L29 27ZM67 27L67 28L68 28L68 27ZM2 29L2 30L3 30L3 29ZM6 29L6 30L5 30L5 31L3 31L3 32L7 32L7 31L6 31L6 30L7 30L7 29ZM17 29L17 30L16 30L16 31L18 31L18 29ZM8 30L8 32L9 32L9 30ZM19 30L19 31L21 31L21 32L22 32L22 31L21 31L21 30ZM27 30L27 31L28 31L28 30ZM32 31L32 32L33 32L33 31ZM56 31L56 32L57 32L57 31ZM65 32L65 34L66 34L66 35L67 35L67 34L68 34L68 33L67 33L67 32ZM3 33L3 34L1 34L1 35L3 35L3 34L4 34L4 33ZM5 33L5 36L8 36L8 33ZM27 33L27 34L28 34L28 33ZM33 33L33 36L36 36L36 33ZM61 33L61 36L64 36L64 33ZM6 34L6 35L7 35L7 34ZM13 34L13 36L14 36L14 37L15 37L15 38L16 38L16 37L15 37L15 36L14 36L14 34ZM34 34L34 35L35 35L35 34ZM58 34L58 35L59 35L59 34ZM62 34L62 35L63 35L63 34ZM11 35L11 36L12 36L12 35ZM31 35L31 36L32 36L32 35ZM38 35L38 36L37 36L37 37L38 37L38 38L36 38L36 39L35 39L35 37L33 37L33 39L32 39L32 38L31 38L31 37L30 37L30 36L29 36L29 37L30 37L30 38L31 38L31 41L32 41L32 40L33 40L33 43L32 43L32 42L31 42L31 43L30 43L30 42L29 42L29 43L28 43L28 44L29 44L29 43L30 43L30 44L31 44L31 45L30 45L30 46L29 46L29 45L27 45L27 44L26 44L26 45L25 45L25 46L26 46L26 45L27 45L27 46L28 46L28 47L30 47L30 46L32 46L32 47L35 47L35 48L33 48L33 51L34 51L34 49L35 49L35 51L37 51L37 54L36 54L36 55L37 55L37 57L38 57L38 58L39 58L39 57L41 57L41 56L42 56L42 55L41 55L41 54L40 54L40 53L41 53L41 52L43 52L43 50L41 50L41 48L40 48L40 47L41 47L41 46L42 46L42 45L41 45L41 44L43 44L43 42L51 42L51 41L50 41L50 39L48 39L48 38L47 38L47 36L46 36L46 37L45 37L45 36L44 36L44 38L42 38L42 39L41 39L41 36L39 36L39 35ZM26 36L26 37L27 37L27 36ZM38 36L38 37L39 37L39 36ZM66 36L66 37L63 37L63 38L62 38L62 37L61 37L61 38L62 38L62 39L64 39L64 40L66 40L66 38L67 38L67 36ZM6 38L6 39L7 39L7 38ZM38 38L38 39L36 39L36 40L35 40L35 39L34 39L34 40L35 40L35 41L34 41L34 42L35 42L35 43L34 43L34 44L35 44L35 43L36 43L36 44L37 44L37 45L39 45L39 44L37 44L37 43L36 43L36 42L35 42L35 41L37 41L37 42L38 42L38 43L39 43L39 42L41 42L41 43L40 43L40 44L41 44L41 43L42 43L42 42L43 42L43 41L44 41L44 40L45 40L45 41L46 41L46 40L47 40L47 41L49 41L49 40L48 40L48 39L47 39L47 38L44 38L44 40L43 40L43 39L42 39L42 40L41 40L41 39L40 39L40 38ZM58 38L58 39L59 39L59 40L60 40L60 39L59 39L59 38ZM38 39L38 42L39 42L39 41L41 41L41 40L40 40L40 39ZM17 40L17 41L19 41L19 40ZM29 40L29 41L30 41L30 40ZM21 41L21 42L22 42L22 41ZM60 41L60 42L61 42L61 43L62 43L62 42L61 42L61 41ZM3 43L3 44L4 44L4 43ZM31 43L31 44L32 44L32 43ZM32 45L32 46L33 46L33 45ZM34 45L34 46L35 46L35 47L36 47L36 48L35 48L35 49L36 49L36 50L37 50L37 51L38 51L38 52L39 52L39 51L40 51L40 52L41 52L41 51L40 51L40 50L37 50L37 47L40 47L40 46L35 46L35 45ZM18 46L18 47L17 47L17 48L18 48L18 49L17 49L17 51L20 51L20 50L19 50L19 49L20 49L20 46ZM6 47L6 48L8 48L8 47ZM11 47L11 48L12 48L12 47ZM22 47L22 49L25 49L25 50L26 50L26 53L25 53L25 51L23 51L23 52L24 52L24 53L23 53L23 54L24 54L24 55L25 55L25 54L26 54L26 55L27 55L27 56L26 56L26 57L27 57L27 58L29 58L29 59L28 59L28 60L29 60L29 61L30 61L30 57L31 57L31 56L32 56L32 54L31 54L31 53L32 53L32 50L31 50L31 49L30 49L30 50L31 50L31 51L29 51L29 53L28 53L28 51L27 51L27 50L28 50L28 49L29 49L29 48L28 48L28 49L25 49L25 48L26 48L26 47L24 47L24 48L23 48L23 47ZM50 48L50 49L51 49L51 48ZM54 48L54 49L53 49L53 50L55 50L55 49L56 49L56 48ZM14 49L14 50L13 50L13 51L12 51L12 53L15 53L15 52L14 52L14 50L15 50L15 51L16 51L16 50L15 50L15 49ZM6 50L6 51L7 51L7 50ZM46 50L46 51L47 51L47 50ZM30 52L30 53L29 53L29 55L30 55L30 53L31 53L31 52ZM33 52L33 53L34 53L34 52ZM44 52L44 53L45 53L45 52ZM18 53L18 54L19 54L19 53ZM20 53L20 54L21 54L21 53ZM24 53L24 54L25 54L25 53ZM26 53L26 54L28 54L28 53ZM18 55L18 56L19 56L19 57L20 57L20 55ZM38 55L38 56L41 56L41 55ZM46 55L46 56L47 56L47 55ZM28 56L28 57L30 57L30 56ZM1 57L1 58L0 58L0 61L1 61L1 58L2 58L2 59L3 59L3 58L2 58L2 57ZM15 57L15 58L16 58L16 57ZM34 57L34 58L35 58L35 57ZM51 57L51 58L52 58L52 60L53 60L53 59L54 59L54 58L52 58L52 57ZM31 58L31 59L32 59L32 58ZM45 58L45 59L40 59L40 60L43 60L43 61L40 61L40 62L41 62L41 63L40 63L40 64L41 64L41 63L42 63L42 62L44 62L44 60L46 60L46 59L47 59L47 61L49 61L49 60L48 60L48 59L47 59L47 58ZM11 59L11 60L13 60L13 59ZM23 59L23 60L24 60L24 59ZM3 60L3 61L5 61L5 60ZM16 60L16 61L17 61L17 60ZM58 60L58 61L59 61L59 60ZM65 60L65 62L66 62L66 61L67 61L67 60ZM33 61L33 64L36 64L36 61ZM61 61L61 64L64 64L64 61ZM19 62L19 64L20 64L20 63L21 63L21 62ZM34 62L34 63L35 63L35 62ZM62 62L62 63L63 63L63 62ZM44 63L44 64L46 64L46 63ZM48 63L48 64L49 64L49 63ZM52 63L52 64L53 64L53 63ZM21 64L21 65L22 65L22 64ZM29 64L29 66L30 66L30 67L31 67L31 66L32 66L32 65L31 65L31 64ZM38 64L38 65L39 65L39 64ZM27 65L27 66L28 66L28 65ZM30 65L30 66L31 66L31 65ZM56 65L56 66L57 66L57 65ZM16 66L16 67L17 67L17 66ZM46 66L46 67L47 67L47 66ZM0 0L0 7L7 7L7 0ZM1 1L1 6L6 6L6 1ZM2 2L2 5L5 5L5 2ZM62 0L62 7L69 7L69 0ZM63 1L63 6L68 6L68 1ZM64 2L64 5L67 5L67 2ZM0 62L0 69L7 69L7 62ZM1 63L1 68L6 68L6 63ZM2 64L2 67L5 67L5 64Z" fill="#000000"/></g></g></svg>
