<?xml version="1.0" encoding="UTF-8"?>
<svg xmlns="http://www.w3.org/2000/svg" version="1.1" width="300" height="300" viewBox="0 0 300 300"><rect x="0" y="0" width="300" height="300" fill="#ffffff"/><g transform="scale(4.348)"><g transform="translate(0,0)"><path fill-rule="evenodd" d="M9 0L9 1L8 1L8 2L9 2L9 3L8 3L8 4L9 4L9 5L8 5L8 7L9 7L9 8L6 8L6 9L7 9L7 10L6 10L6 11L7 11L7 12L5 12L5 13L4 13L4 14L3 14L3 12L2 12L2 10L5 10L5 8L0 8L0 9L2 9L2 10L1 10L1 11L0 11L0 12L2 12L2 14L1 14L1 13L0 13L0 14L1 14L1 16L2 16L2 18L1 18L1 17L0 17L0 18L1 18L1 19L0 19L0 20L2 20L2 21L1 21L1 22L2 22L2 21L3 21L3 22L5 22L5 21L3 21L3 19L2 19L2 18L6 18L6 19L7 19L7 20L6 20L6 21L7 21L7 20L9 20L9 21L8 21L8 22L6 22L6 23L4 23L4 27L3 27L3 26L2 26L2 27L1 27L1 26L0 26L0 27L1 27L1 28L0 28L0 29L1 29L1 31L3 31L3 33L4 33L4 35L3 35L3 34L2 34L2 37L0 37L0 38L1 38L1 39L2 39L2 41L0 41L0 42L1 42L1 43L0 43L0 47L1 47L1 48L0 48L0 52L1 52L1 53L0 53L0 56L1 56L1 58L0 58L0 61L1 61L1 58L2 58L2 59L3 59L3 57L5 57L5 58L4 58L4 59L8 59L8 60L6 60L6 61L8 61L8 63L9 63L9 64L8 64L8 69L10 69L10 68L9 68L9 67L11 67L11 69L14 69L14 68L13 68L13 66L12 66L12 65L11 65L11 66L9 66L9 64L11 64L11 62L12 62L12 64L15 64L15 65L14 65L14 66L15 66L15 69L19 69L19 68L20 68L20 69L21 69L21 68L22 68L22 66L23 66L23 67L24 67L24 68L25 68L25 69L26 69L26 68L27 68L27 69L31 69L31 68L33 68L33 67L31 67L31 68L30 68L30 67L29 67L29 68L28 68L28 67L27 67L27 66L28 66L28 65L27 65L27 66L26 66L26 65L24 65L24 64L26 64L26 63L24 63L24 62L25 62L25 61L26 61L26 62L27 62L27 61L26 61L26 60L25 60L25 61L22 61L22 58L21 58L21 59L20 59L20 60L19 60L19 58L18 58L18 57L22 57L22 56L20 56L20 55L22 55L22 54L25 54L25 53L26 53L26 56L25 56L25 55L23 55L23 56L24 56L24 57L23 57L23 58L24 58L24 57L25 57L25 58L26 58L26 59L27 59L27 60L28 60L28 61L29 61L29 62L28 62L28 63L27 63L27 64L28 64L28 63L29 63L29 62L30 62L30 61L31 61L31 62L32 62L32 65L31 65L31 63L30 63L30 64L29 64L29 66L30 66L30 65L31 65L31 66L32 66L32 65L35 65L35 66L34 66L34 67L35 67L35 66L36 66L36 67L37 67L37 68L35 68L35 69L37 69L37 68L39 68L39 67L40 67L40 68L41 68L41 69L44 69L44 68L45 68L45 69L50 69L50 68L48 68L48 67L47 67L47 66L46 66L46 67L42 67L42 66L43 66L43 65L44 65L44 66L45 66L45 65L44 65L44 64L46 64L46 63L47 63L47 64L48 64L48 65L49 65L49 66L50 66L50 67L51 67L51 68L53 68L53 69L54 69L54 68L58 68L58 67L60 67L60 68L59 68L59 69L66 69L66 68L67 68L67 69L68 69L68 68L67 68L67 65L66 65L66 64L68 64L68 63L66 63L66 64L65 64L65 61L66 61L66 62L69 62L69 61L68 61L68 60L67 60L67 59L68 59L68 58L69 58L69 56L68 56L68 58L67 58L67 59L66 59L66 58L65 58L65 60L63 60L63 59L64 59L64 58L63 58L63 55L62 55L62 52L63 52L63 51L62 51L62 50L63 50L63 49L65 49L65 50L64 50L64 51L65 51L65 52L64 52L64 53L63 53L63 54L64 54L64 55L65 55L65 56L64 56L64 57L66 57L66 56L67 56L67 55L68 55L68 54L69 54L69 53L66 53L66 52L68 52L68 50L69 50L69 49L68 49L68 48L69 48L69 47L68 47L68 46L69 46L69 43L68 43L68 42L69 42L69 41L68 41L68 40L69 40L69 39L68 39L68 38L69 38L69 35L68 35L68 34L69 34L69 32L68 32L68 34L67 34L67 33L65 33L65 32L67 32L67 31L68 31L68 30L69 30L69 27L68 27L68 28L67 28L67 26L69 26L69 25L65 25L65 26L62 26L62 25L64 25L64 24L69 24L69 23L68 23L68 22L69 22L69 20L67 20L67 19L68 19L68 18L69 18L69 17L68 17L68 18L67 18L67 17L64 17L64 16L68 16L68 14L69 14L69 13L68 13L68 14L67 14L67 15L64 15L64 16L63 16L63 18L62 18L62 16L61 16L61 17L60 17L60 15L63 15L63 14L64 14L64 12L67 12L67 11L68 11L68 12L69 12L69 11L68 11L68 10L69 10L69 9L68 9L68 8L67 8L67 9L68 9L68 10L66 10L66 8L65 8L65 10L66 10L66 11L64 11L64 8L63 8L63 10L62 10L62 8L61 8L61 6L60 6L60 7L59 7L59 4L58 4L58 7L57 7L57 6L56 6L56 7L55 7L55 6L54 6L54 5L55 5L55 4L56 4L56 3L59 3L59 2L58 2L58 1L61 1L61 0L57 0L57 2L56 2L56 0L51 0L51 1L50 1L50 0L49 0L49 1L45 1L45 0L44 0L44 1L43 1L43 0L41 0L41 2L40 2L40 1L38 1L38 0L37 0L37 1L36 1L36 0L33 0L33 1L36 1L36 2L35 2L35 3L34 3L34 2L33 2L33 3L31 3L31 2L32 2L32 0L31 0L31 2L30 2L30 0L29 0L29 3L28 3L28 2L25 2L25 1L26 1L26 0L22 0L22 1L21 1L21 0L18 0L18 1L17 1L17 2L16 2L16 0L15 0L15 1L14 1L14 2L13 2L13 3L12 3L12 4L13 4L13 3L15 3L15 4L14 4L14 5L15 5L15 6L14 6L14 7L13 7L13 6L12 6L12 5L11 5L11 2L12 2L12 1L13 1L13 0L12 0L12 1L11 1L11 0ZM27 0L27 1L28 1L28 0ZM19 1L19 2L20 2L20 1ZM37 1L37 2L36 2L36 3L35 3L35 4L36 4L36 3L37 3L37 5L40 5L40 6L39 6L39 7L38 7L38 6L37 6L37 7L38 7L38 8L37 8L37 10L41 10L41 8L40 8L40 6L41 6L41 7L42 7L42 6L43 6L43 8L42 8L42 9L43 9L43 10L42 10L42 11L43 11L43 10L45 10L45 11L46 11L46 12L44 12L44 13L45 13L45 14L42 14L42 15L41 15L41 12L40 12L40 11L38 11L38 12L37 12L37 13L36 13L36 12L35 12L35 11L36 11L36 10L35 10L35 9L31 9L31 11L33 11L33 12L35 12L35 13L36 13L36 14L37 14L37 13L38 13L38 14L39 14L39 13L40 13L40 15L39 15L39 17L38 17L38 15L35 15L35 16L34 16L34 15L32 15L32 14L31 14L31 13L32 13L32 12L31 12L31 13L30 13L30 14L29 14L29 13L28 13L28 12L29 12L29 11L30 11L30 10L29 10L29 9L30 9L30 8L29 8L29 9L28 9L28 8L26 8L26 9L27 9L27 11L26 11L26 10L25 10L25 11L26 11L26 13L27 13L27 14L29 14L29 16L28 16L28 15L27 15L27 16L28 16L28 17L25 17L25 16L26 16L26 15L25 15L25 16L23 16L23 14L22 14L22 13L25 13L25 12L24 12L24 11L22 11L22 12L21 12L21 13L20 13L20 11L15 11L15 10L16 10L16 9L14 9L14 11L15 11L15 13L14 13L14 12L13 12L13 10L12 10L12 9L13 9L13 7L12 7L12 6L11 6L11 5L9 5L9 7L10 7L10 8L9 8L9 9L10 9L10 10L8 10L8 12L7 12L7 13L5 13L5 14L4 14L4 17L5 17L5 16L7 16L7 17L6 17L6 18L7 18L7 17L8 17L8 18L9 18L9 17L10 17L10 18L11 18L11 19L9 19L9 20L10 20L10 22L11 22L11 23L9 23L9 22L8 22L8 23L6 23L6 24L8 24L8 23L9 23L9 25L8 25L8 28L7 28L7 27L6 27L6 28L5 28L5 27L4 27L4 28L5 28L5 31L4 31L4 32L5 32L5 31L6 31L6 32L7 32L7 31L9 31L9 30L10 30L10 29L11 29L11 30L12 30L12 31L11 31L11 35L10 35L10 33L9 33L9 37L5 37L5 38L4 38L4 40L5 40L5 44L9 44L9 43L10 43L10 42L11 42L11 46L9 46L9 45L6 45L6 46L5 46L5 45L4 45L4 46L1 46L1 47L3 47L3 48L4 48L4 46L5 46L5 48L7 48L7 47L6 47L6 46L9 46L9 47L10 47L10 48L8 48L8 49L9 49L9 50L8 50L8 51L6 51L6 50L7 50L7 49L6 49L6 50L4 50L4 49L2 49L2 48L1 48L1 49L2 49L2 50L1 50L1 51L2 51L2 52L3 52L3 53L4 53L4 52L3 52L3 51L5 51L5 52L8 52L8 51L9 51L9 50L11 50L11 52L10 52L10 54L9 54L9 53L8 53L8 54L9 54L9 55L8 55L8 56L7 56L7 55L6 55L6 54L7 54L7 53L6 53L6 54L5 54L5 55L4 55L4 54L2 54L2 53L1 53L1 55L2 55L2 56L3 56L3 55L4 55L4 56L5 56L5 57L6 57L6 58L7 58L7 57L8 57L8 58L9 58L9 63L10 63L10 62L11 62L11 61L12 61L12 62L13 62L13 63L14 63L14 62L17 62L17 61L18 61L18 63L16 63L16 64L18 64L18 65L15 65L15 66L18 66L18 65L23 65L23 64L24 64L24 63L22 63L22 61L18 61L18 60L17 60L17 59L18 59L18 58L17 58L17 56L19 56L19 55L20 55L20 54L22 54L22 53L25 53L25 52L22 52L22 51L23 51L23 50L22 50L22 51L21 51L21 49L23 49L23 47L25 47L25 48L24 48L24 49L25 49L25 50L24 50L24 51L26 51L26 53L27 53L27 54L28 54L28 55L29 55L29 56L30 56L30 57L28 57L28 56L26 56L26 57L27 57L27 59L28 59L28 60L29 60L29 59L30 59L30 60L31 60L31 59L32 59L32 60L35 60L35 58L36 58L36 59L37 59L37 58L36 58L36 57L38 57L38 58L39 58L39 59L38 59L38 60L37 60L37 62L39 62L39 63L38 63L38 66L37 66L37 67L38 67L38 66L40 66L40 67L41 67L41 68L42 68L42 67L41 67L41 64L44 64L44 63L46 63L46 62L47 62L47 63L48 63L48 64L49 64L49 65L50 65L50 66L51 66L51 67L52 67L52 66L53 66L53 68L54 68L54 67L57 67L57 66L59 66L59 65L60 65L60 66L61 66L61 68L63 68L63 67L62 67L62 65L60 65L60 64L59 64L59 63L58 63L58 62L60 62L60 60L61 60L61 59L63 59L63 58L59 58L59 57L60 57L60 56L61 56L61 57L62 57L62 55L60 55L60 54L61 54L61 51L60 51L60 52L59 52L59 51L58 51L58 50L59 50L59 49L60 49L60 48L61 48L61 50L62 50L62 49L63 49L63 48L62 48L62 47L64 47L64 48L66 48L66 49L67 49L67 48L68 48L68 47L67 47L67 46L68 46L68 45L67 45L67 44L68 44L68 43L67 43L67 42L68 42L68 41L67 41L67 40L68 40L68 39L67 39L67 38L66 38L66 39L67 39L67 40L66 40L66 41L64 41L64 40L65 40L65 37L61 37L61 38L60 38L60 40L59 40L59 39L58 39L58 38L59 38L59 37L60 37L60 35L58 35L58 34L59 34L59 33L60 33L60 32L63 32L63 31L60 31L60 30L59 30L59 29L61 29L61 28L58 28L58 30L56 30L56 29L57 29L57 28L55 28L55 27L56 27L56 26L57 26L57 27L58 27L58 26L59 26L59 27L60 27L60 26L59 26L59 25L61 25L61 22L63 22L63 23L62 23L62 24L64 24L64 23L67 23L67 22L68 22L68 21L67 21L67 20L64 20L64 18L63 18L63 20L62 20L62 19L61 19L61 20L60 20L60 21L59 21L59 20L55 20L55 19L56 19L56 18L57 18L57 19L58 19L58 18L59 18L59 19L60 19L60 17L59 17L59 15L60 15L60 13L61 13L61 14L63 14L63 13L62 13L62 12L64 12L64 11L62 11L62 12L61 12L61 10L59 10L59 9L61 9L61 8L59 8L59 7L58 7L58 10L56 10L56 11L55 11L55 10L54 10L54 11L53 11L53 12L52 12L52 10L53 10L53 8L49 8L49 7L50 7L50 6L49 6L49 7L48 7L48 5L47 5L47 4L46 4L46 3L47 3L47 2L46 2L46 3L44 3L44 2L45 2L45 1L44 1L44 2L43 2L43 1L42 1L42 2L41 2L41 3L39 3L39 2L38 2L38 1ZM51 1L51 2L48 2L48 3L50 3L50 5L51 5L51 3L52 3L52 4L53 4L53 3L54 3L54 4L55 4L55 1ZM21 2L21 3L22 3L22 4L17 4L17 3L16 3L16 4L15 4L15 5L16 5L16 4L17 4L17 7L18 7L18 8L19 8L19 9L18 9L18 10L19 10L19 9L20 9L20 10L21 10L21 9L22 9L22 10L24 10L24 9L22 9L22 8L21 8L21 7L22 7L22 4L25 4L25 5L23 5L23 7L24 7L24 8L25 8L25 7L26 7L26 6L27 6L27 7L28 7L28 6L29 6L29 7L30 7L30 5L31 5L31 7L32 7L32 5L31 5L31 4L28 4L28 3L26 3L26 4L25 4L25 3L24 3L24 2L23 2L23 3L22 3L22 2ZM42 2L42 3L41 3L41 6L42 6L42 5L43 5L43 6L44 6L44 8L43 8L43 9L44 9L44 8L46 8L46 7L47 7L47 10L46 10L46 9L45 9L45 10L46 10L46 11L47 11L47 10L48 10L48 11L51 11L51 10L52 10L52 9L51 9L51 10L49 10L49 8L48 8L48 7L47 7L47 5L46 5L46 4L45 4L45 5L46 5L46 7L45 7L45 6L44 6L44 3L43 3L43 2ZM52 2L52 3L53 3L53 2ZM9 3L9 4L10 4L10 3ZM33 3L33 4L34 4L34 3ZM38 3L38 4L39 4L39 3ZM60 3L60 5L61 5L61 3ZM26 4L26 5L27 5L27 6L28 6L28 5L27 5L27 4ZM19 5L19 6L18 6L18 7L19 7L19 8L20 8L20 9L21 9L21 8L20 8L20 7L21 7L21 5ZM33 5L33 8L36 8L36 5ZM10 6L10 7L11 7L11 6ZM15 6L15 7L14 7L14 8L16 8L16 6ZM19 6L19 7L20 7L20 6ZM24 6L24 7L25 7L25 6ZM34 6L34 7L35 7L35 6ZM51 6L51 7L52 7L52 6ZM53 6L53 7L54 7L54 6ZM10 8L10 9L11 9L11 8ZM38 8L38 9L39 9L39 8ZM54 8L54 9L57 9L57 8ZM28 10L28 11L27 11L27 12L28 12L28 11L29 11L29 10ZM34 10L34 11L35 11L35 10ZM58 10L58 11L59 11L59 10ZM54 11L54 12L53 12L53 13L54 13L54 14L53 14L53 15L52 15L52 14L50 14L50 13L51 13L51 12L50 12L50 13L49 13L49 12L47 12L47 13L49 13L49 14L46 14L46 15L42 15L42 16L41 16L41 15L40 15L40 16L41 16L41 17L42 17L42 18L41 18L41 19L40 19L40 18L38 18L38 17L37 17L37 16L36 16L36 17L34 17L34 16L32 16L32 15L31 15L31 16L30 16L30 17L28 17L28 18L27 18L27 19L26 19L26 18L25 18L25 17L22 17L22 18L21 18L21 20L18 20L18 19L20 19L20 18L19 18L19 17L20 17L20 16L19 16L19 15L21 15L21 14L20 14L20 13L19 13L19 12L16 12L16 13L15 13L15 15L14 15L14 14L13 14L13 13L12 13L12 12L11 12L11 14L10 14L10 13L9 13L9 12L8 12L8 13L9 13L9 14L5 14L5 15L10 15L10 17L11 17L11 18L12 18L12 17L13 17L13 19L12 19L12 20L11 20L11 21L12 21L12 22L13 22L13 23L11 23L11 25L9 25L9 27L11 27L11 28L12 28L12 30L14 30L14 29L15 29L15 28L16 28L16 29L17 29L17 30L16 30L16 31L15 31L15 33L18 33L18 34L16 34L16 35L15 35L15 34L14 34L14 32L13 32L13 34L12 34L12 35L11 35L11 37L9 37L9 38L8 38L8 39L7 39L7 38L5 38L5 40L6 40L6 41L8 41L8 43L9 43L9 42L10 42L10 41L12 41L12 46L11 46L11 48L12 48L12 52L11 52L11 54L10 54L10 55L9 55L9 56L8 56L8 57L9 57L9 56L10 56L10 55L11 55L11 57L12 57L12 55L14 55L14 54L15 54L15 55L16 55L16 53L19 53L19 54L20 54L20 53L21 53L21 52L19 52L19 51L20 51L20 50L19 50L19 49L20 49L20 47L23 47L23 46L25 46L25 47L26 47L26 48L25 48L25 49L28 49L28 50L26 50L26 51L28 51L28 53L31 53L31 54L32 54L32 55L31 55L31 56L32 56L32 57L30 57L30 59L31 59L31 58L35 58L35 57L36 57L36 56L38 56L38 57L39 57L39 58L41 58L41 59L40 59L40 60L38 60L38 61L39 61L39 62L44 62L44 60L46 60L46 59L47 59L47 58L46 58L46 59L42 59L42 58L44 58L44 56L46 56L46 57L49 57L49 60L47 60L47 62L48 62L48 63L50 63L50 64L53 64L53 66L55 66L55 65L54 65L54 64L57 64L57 63L54 63L54 62L58 62L58 61L54 61L54 60L60 60L60 59L59 59L59 58L58 58L58 59L57 59L57 58L56 58L56 59L53 59L53 58L55 58L55 56L57 56L57 55L59 55L59 56L58 56L58 57L59 57L59 56L60 56L60 55L59 55L59 54L57 54L57 55L54 55L54 54L55 54L55 53L56 53L56 52L57 52L57 53L59 53L59 52L58 52L58 51L53 51L53 50L58 50L58 47L59 47L59 48L60 48L60 47L62 47L62 46L64 46L64 47L66 47L66 48L67 48L67 47L66 47L66 46L67 46L67 45L66 45L66 46L64 46L64 45L65 45L65 44L67 44L67 43L66 43L66 42L65 42L65 44L64 44L64 45L62 45L62 44L63 44L63 43L62 43L62 42L60 42L60 41L61 41L61 40L62 40L62 41L63 41L63 42L64 42L64 41L63 41L63 40L64 40L64 38L63 38L63 39L61 39L61 40L60 40L60 41L59 41L59 40L58 40L58 39L57 39L57 38L56 38L56 39L54 39L54 38L55 38L55 37L56 37L56 36L57 36L57 37L58 37L58 36L57 36L57 35L56 35L56 34L57 34L57 33L58 33L58 31L59 31L59 30L58 30L58 31L54 31L54 30L55 30L55 28L53 28L53 27L54 27L54 26L56 26L56 25L54 25L54 26L52 26L52 25L51 25L51 26L50 26L50 25L49 25L49 24L50 24L50 23L51 23L51 24L57 24L57 23L53 23L53 22L56 22L56 21L55 21L55 20L54 20L54 21L53 21L53 22L50 22L50 20L48 20L48 19L51 19L51 20L53 20L53 19L52 19L52 18L50 18L50 17L51 17L51 16L50 16L50 15L52 15L52 16L53 16L53 15L54 15L54 14L55 14L55 13L56 13L56 12L57 12L57 13L60 13L60 12L57 12L57 11L56 11L56 12L55 12L55 11ZM16 13L16 14L17 14L17 15L18 15L18 14L19 14L19 13L18 13L18 14L17 14L17 13ZM33 13L33 14L34 14L34 13ZM65 13L65 14L66 14L66 13ZM2 14L2 16L3 16L3 14ZM49 14L49 15L48 15L48 16L47 16L47 17L46 17L46 16L43 16L43 18L42 18L42 19L41 19L41 20L40 20L40 19L39 19L39 20L38 20L38 19L37 19L37 20L36 20L36 19L35 19L35 18L34 18L34 19L32 19L32 21L33 21L33 22L39 22L39 23L37 23L37 25L38 25L38 26L39 26L39 27L37 27L37 26L36 26L36 25L35 25L35 26L34 26L34 24L36 24L36 23L32 23L32 22L31 22L31 21L30 21L30 19L29 19L29 21L28 21L28 19L27 19L27 20L26 20L26 19L22 19L22 20L21 20L21 21L20 21L20 22L19 22L19 21L17 21L17 19L18 19L18 18L17 18L17 17L18 17L18 16L16 16L16 15L15 15L15 17L14 17L14 18L17 18L17 19L14 19L14 21L13 21L13 20L12 20L12 21L13 21L13 22L14 22L14 21L17 21L17 22L15 22L15 23L13 23L13 25L16 25L16 26L15 26L15 27L14 27L14 26L12 26L12 25L11 25L11 27L12 27L12 28L13 28L13 29L14 29L14 28L15 28L15 27L16 27L16 28L17 28L17 29L18 29L18 31L16 31L16 32L18 32L18 33L21 33L21 34L22 34L22 35L21 35L21 37L20 37L20 36L19 36L19 35L20 35L20 34L19 34L19 35L18 35L18 36L19 36L19 37L14 37L14 40L16 40L16 41L13 41L13 46L12 46L12 48L14 48L14 50L13 50L13 52L14 52L14 50L15 50L15 53L16 53L16 52L17 52L17 51L16 51L16 50L17 50L17 49L18 49L18 48L17 48L17 47L18 47L18 46L19 46L19 45L18 45L18 46L17 46L17 45L16 45L16 43L15 43L15 42L16 42L16 41L17 41L17 42L20 42L20 44L21 44L21 45L20 45L20 46L22 46L22 45L23 45L23 44L24 44L24 45L25 45L25 46L26 46L26 45L28 45L28 49L29 49L29 45L28 45L28 44L29 44L29 43L32 43L32 42L29 42L29 41L30 41L30 40L29 40L29 39L30 39L30 38L31 38L31 39L33 39L33 38L35 38L35 37L33 37L33 38L31 38L31 37L32 37L32 36L31 36L31 35L32 35L32 33L29 33L29 31L32 31L32 32L33 32L33 31L34 31L34 32L35 32L35 31L36 31L36 32L38 32L38 34L39 34L39 35L37 35L37 37L38 37L38 38L40 38L40 39L41 39L41 40L39 40L39 39L37 39L37 38L36 38L36 39L37 39L37 40L38 40L38 41L36 41L36 40L34 40L34 41L33 41L33 43L34 43L34 45L33 45L33 44L31 44L31 45L30 45L30 46L32 46L32 47L33 47L33 46L34 46L34 49L33 49L33 51L34 51L34 49L35 49L35 50L36 50L36 51L35 51L35 52L36 52L36 53L37 53L37 52L36 52L36 51L37 51L37 50L40 50L40 51L38 51L38 54L36 54L36 55L35 55L35 53L34 53L34 52L33 52L33 53L34 53L34 54L33 54L33 55L34 55L34 56L33 56L33 57L35 57L35 56L36 56L36 55L38 55L38 56L39 56L39 57L41 57L41 56L42 56L42 55L43 55L43 54L44 54L44 55L45 55L45 54L47 54L47 55L46 55L46 56L47 56L47 55L48 55L48 56L49 56L49 57L50 57L50 58L51 58L51 59L50 59L50 60L49 60L49 61L50 61L50 62L52 62L52 63L53 63L53 62L52 62L52 61L53 61L53 60L52 60L52 58L53 58L53 57L54 57L54 56L51 56L51 55L50 55L50 56L49 56L49 55L48 55L48 54L47 54L47 53L45 53L45 52L44 52L44 50L45 50L45 51L46 51L46 50L47 50L47 49L45 49L45 48L47 48L47 47L46 47L46 46L48 46L48 48L49 48L49 49L48 49L48 50L49 50L49 49L50 49L50 50L52 50L52 49L54 49L54 47L55 47L55 46L54 46L54 45L53 45L53 44L54 44L54 43L57 43L57 44L55 44L55 45L57 45L57 46L56 46L56 47L58 47L58 46L59 46L59 47L60 47L60 46L61 46L61 44L62 44L62 43L60 43L60 42L59 42L59 41L57 41L57 40L54 40L54 41L53 41L53 40L51 40L51 39L50 39L50 40L49 40L49 39L48 39L48 38L47 38L47 35L48 35L48 36L50 36L50 38L54 38L54 37L53 37L53 36L54 36L54 35L55 35L55 36L56 36L56 35L55 35L55 34L56 34L56 33L57 33L57 32L56 32L56 33L55 33L55 34L54 34L54 33L53 33L53 32L52 32L52 31L53 31L53 28L52 28L52 26L51 26L51 29L50 29L50 28L49 28L49 27L48 27L48 28L49 28L49 30L47 30L47 27L46 27L46 26L47 26L47 23L48 23L48 24L49 24L49 23L48 23L48 22L47 22L47 19L48 19L48 16L49 16L49 15L50 15L50 14ZM58 14L58 15L56 15L56 16L55 16L55 17L53 17L53 18L55 18L55 17L56 17L56 16L58 16L58 15L59 15L59 14ZM12 15L12 16L11 16L11 17L12 17L12 16L13 16L13 15ZM8 16L8 17L9 17L9 16ZM30 17L30 18L32 18L32 17ZM36 17L36 18L37 18L37 17ZM46 18L46 19L47 19L47 18ZM65 18L65 19L67 19L67 18ZM42 19L42 20L41 20L41 21L40 21L40 22L41 22L41 23L40 23L40 24L38 24L38 25L39 25L39 26L40 26L40 28L41 28L41 29L40 29L40 30L36 30L36 28L34 28L34 29L33 29L33 30L32 30L32 31L33 31L33 30L34 30L34 29L35 29L35 30L36 30L36 31L40 31L40 32L41 32L41 31L40 31L40 30L44 30L44 28L46 28L46 27L42 27L42 26L44 26L44 24L45 24L45 23L44 23L44 22L46 22L46 23L47 23L47 22L46 22L46 20L45 20L45 19L44 19L44 20L43 20L43 19ZM25 20L25 21L22 21L22 22L20 22L20 23L19 23L19 22L18 22L18 23L19 23L19 24L17 24L17 23L15 23L15 24L17 24L17 25L19 25L19 26L20 26L20 25L22 25L22 24L21 24L21 23L22 23L22 22L23 22L23 23L24 23L24 25L23 25L23 26L24 26L24 25L25 25L25 29L21 29L21 28L20 28L20 29L19 29L19 28L18 28L18 29L19 29L19 31L21 31L21 33L22 33L22 34L26 34L26 33L24 33L24 32L26 32L26 31L25 31L25 29L26 29L26 30L27 30L27 29L29 29L29 30L30 30L30 29L32 29L32 28L28 28L28 27L29 27L29 26L27 26L27 25L26 25L26 24L27 24L27 23L26 23L26 24L25 24L25 22L28 22L28 23L30 23L30 21L29 21L29 22L28 22L28 21L26 21L26 20ZM33 20L33 21L35 21L35 20ZM44 20L44 21L45 21L45 20ZM60 21L60 22L61 22L61 21ZM63 21L63 22L67 22L67 21ZM42 22L42 23L41 23L41 24L40 24L40 26L41 26L41 24L42 24L42 23L43 23L43 24L44 24L44 23L43 23L43 22ZM58 22L58 23L59 23L59 22ZM0 23L0 25L1 25L1 24L2 24L2 25L3 25L3 24L2 24L2 23ZM31 23L31 25L30 25L30 24L28 24L28 25L30 25L30 26L31 26L31 27L32 27L32 26L31 26L31 25L33 25L33 24L32 24L32 23ZM19 24L19 25L20 25L20 24ZM58 24L58 25L59 25L59 24ZM5 25L5 26L7 26L7 25ZM21 26L21 27L22 27L22 28L24 28L24 27L22 27L22 26ZM26 26L26 27L27 27L27 26ZM33 26L33 27L34 27L34 26ZM35 26L35 27L36 27L36 26ZM61 26L61 27L62 27L62 30L63 30L63 29L64 29L64 30L65 30L65 31L67 31L67 30L68 30L68 29L67 29L67 28L63 28L63 27L62 27L62 26ZM65 26L65 27L66 27L66 26ZM1 28L1 29L2 29L2 30L4 30L4 29L3 29L3 28ZM6 28L6 29L7 29L7 30L6 30L6 31L7 31L7 30L8 30L8 29L10 29L10 28L8 28L8 29L7 29L7 28ZM26 28L26 29L27 29L27 28ZM37 28L37 29L38 29L38 28ZM42 28L42 29L43 29L43 28ZM20 29L20 30L21 30L21 29ZM66 29L66 30L67 30L67 29ZM22 30L22 33L23 33L23 31L24 31L24 30ZM46 30L46 31L42 31L42 33L41 33L41 34L43 34L43 35L42 35L42 36L41 36L41 35L39 35L39 36L41 36L41 37L40 37L40 38L41 38L41 39L42 39L42 40L41 40L41 41L39 41L39 42L37 42L37 43L36 43L36 42L35 42L35 41L34 41L34 42L35 42L35 45L34 45L34 46L36 46L36 48L35 48L35 49L36 49L36 48L37 48L37 49L38 49L38 48L37 48L37 46L38 46L38 47L39 47L39 48L42 48L42 47L39 47L39 46L38 46L38 45L39 45L39 44L38 44L38 45L36 45L36 44L37 44L37 43L39 43L39 42L40 42L40 44L41 44L41 46L44 46L44 44L46 44L46 43L47 43L47 45L48 45L48 46L49 46L49 48L50 48L50 47L52 47L52 48L53 48L53 47L54 47L54 46L53 46L53 47L52 47L52 46L50 46L50 43L52 43L52 44L53 44L53 43L54 43L54 42L55 42L55 41L54 41L54 42L53 42L53 41L52 41L52 42L50 42L50 41L49 41L49 40L47 40L47 38L45 38L45 39L44 39L44 36L45 36L45 37L46 37L46 36L45 36L45 34L44 34L44 33L43 33L43 32L45 32L45 33L46 33L46 31L47 31L47 34L46 34L46 35L47 35L47 34L48 34L48 35L51 35L51 34L50 34L50 32L51 32L51 31L52 31L52 30L49 30L49 31L50 31L50 32L48 32L48 31L47 31L47 30ZM0 32L0 33L2 33L2 32ZM5 33L5 36L8 36L8 33ZM27 33L27 34L28 34L28 33ZM33 33L33 36L36 36L36 33ZM48 33L48 34L49 34L49 33ZM61 33L61 36L64 36L64 33ZM0 34L0 35L1 35L1 34ZM6 34L6 35L7 35L7 34ZM30 34L30 35L29 35L29 36L28 36L28 35L27 35L27 36L28 36L28 37L26 37L26 36L25 36L25 35L24 35L24 36L23 36L23 37L22 37L22 39L20 39L20 40L19 40L19 38L20 38L20 37L19 37L19 38L18 38L18 39L17 39L17 41L21 41L21 42L22 42L22 43L21 43L21 44L23 44L23 43L24 43L24 44L25 44L25 45L26 45L26 44L28 44L28 43L29 43L29 42L27 42L27 41L26 41L26 40L28 40L28 41L29 41L29 40L28 40L28 39L29 39L29 38L28 38L28 37L31 37L31 36L30 36L30 35L31 35L31 34ZM34 34L34 35L35 35L35 34ZM53 34L53 35L52 35L52 36L51 36L51 37L52 37L52 36L53 36L53 35L54 35L54 34ZM62 34L62 35L63 35L63 34ZM65 34L65 35L67 35L67 34ZM14 35L14 36L15 36L15 35ZM16 35L16 36L17 36L17 35ZM43 35L43 36L44 36L44 35ZM3 36L3 37L2 37L2 38L3 38L3 37L4 37L4 36ZM24 36L24 37L25 37L25 36ZM66 36L66 37L67 37L67 36ZM10 38L10 40L9 40L9 41L10 41L10 40L12 40L12 38ZM24 38L24 39L23 39L23 40L26 40L26 38ZM42 38L42 39L43 39L43 38ZM6 39L6 40L7 40L7 39ZM21 40L21 41L22 41L22 42L24 42L24 41L22 41L22 40ZM31 40L31 41L32 41L32 40ZM44 40L44 42L42 42L42 43L41 43L41 44L42 44L42 43L45 43L45 42L47 42L47 40L46 40L46 41L45 41L45 40ZM2 41L2 42L4 42L4 41ZM25 41L25 43L26 43L26 41ZM48 41L48 42L49 42L49 41ZM56 41L56 42L57 42L57 41ZM6 42L6 43L7 43L7 42ZM52 42L52 43L53 43L53 42ZM58 42L58 43L59 43L59 44L58 44L58 45L59 45L59 46L60 46L60 45L59 45L59 44L60 44L60 43L59 43L59 42ZM1 43L1 45L3 45L3 43ZM14 43L14 44L15 44L15 43ZM17 43L17 44L18 44L18 43ZM48 43L48 44L49 44L49 43ZM15 45L15 47L14 47L14 48L15 48L15 49L17 49L17 48L16 48L16 45ZM32 45L32 46L33 46L33 45ZM30 47L30 48L31 48L31 47ZM44 47L44 48L43 48L43 49L42 49L42 50L41 50L41 51L40 51L40 52L41 52L41 54L38 54L38 55L39 55L39 56L41 56L41 55L42 55L42 54L43 54L43 53L44 53L44 54L45 54L45 53L44 53L44 52L43 52L43 51L42 51L42 50L43 50L43 49L44 49L44 48L45 48L45 47ZM56 48L56 49L57 49L57 48ZM30 49L30 50L29 50L29 52L30 52L30 51L31 51L31 53L32 53L32 50L31 50L31 49ZM2 50L2 51L3 51L3 50ZM41 51L41 52L42 52L42 51ZM48 51L48 52L50 52L50 54L52 54L52 55L53 55L53 52L52 52L52 51ZM51 52L51 53L52 53L52 52ZM54 52L54 53L55 53L55 52ZM64 53L64 54L65 54L65 55L67 55L67 54L65 54L65 53ZM17 54L17 55L18 55L18 54ZM29 54L29 55L30 55L30 54ZM6 56L6 57L7 57L7 56ZM14 57L14 58L10 58L10 60L12 60L12 61L13 61L13 62L14 62L14 61L15 61L15 60L16 60L16 61L17 61L17 60L16 60L16 59L15 59L15 58L16 58L16 57ZM51 57L51 58L52 58L52 57ZM12 59L12 60L13 60L13 59ZM14 59L14 60L15 60L15 59ZM23 59L23 60L24 60L24 59ZM41 59L41 60L40 60L40 61L41 61L41 60L42 60L42 59ZM3 60L3 61L5 61L5 60ZM66 60L66 61L67 61L67 60ZM33 61L33 64L36 64L36 61ZM61 61L61 64L64 64L64 61ZM20 62L20 63L19 63L19 64L20 64L20 63L21 63L21 64L22 64L22 63L21 63L21 62ZM34 62L34 63L35 63L35 62ZM62 62L62 63L63 63L63 62ZM40 63L40 64L41 64L41 63ZM51 65L51 66L52 66L52 65ZM56 65L56 66L57 66L57 65ZM63 65L63 66L64 66L64 68L65 68L65 67L66 67L66 65L65 65L65 66L64 66L64 65ZM11 66L11 67L12 67L12 66ZM19 66L19 67L18 67L18 68L19 68L19 67L20 67L20 66ZM25 66L25 67L26 67L26 66ZM0 0L0 7L7 7L7 0ZM1 1L1 6L6 6L6 1ZM2 2L2 5L5 5L5 2ZM62 0L62 7L69 7L69 0ZM63 1L63 6L68 6L68 1ZM64 2L64 5L67 5L67 2ZM0 62L0 69L7 69L7 62ZM1 63L1 68L6 68L6 63ZM2 64L2 67L5 67L5 64Z" fill="#000000"/></g></g></svg>
